RobotoFlex-opsz144-wght100-GRAD-1.ufo
<glyph name="exclam" format="2">
	<unicode hex="0021"/>
	<advance width="468"/>
	<outline>
		<contour>
			<point x="209.28" y="15" type="qcurve" smooth="yes"/>
			<point x="209.28" y="25.6"/>
			<point x="222.64" y="39"/>
			<point x="234" y="39" type="qcurve" smooth="yes"/>
			<point x="246.4" y="39"/>
			<point x="258.72" y="25.6"/>
			<point x="258.72" y="15" type="qcurve" smooth="yes"/>
			<point x="258.72" y="3.4"/>
			<point x="245.4" y="-10"/>
			<point x="233" y="-10" type="qcurve" smooth="yes"/>
			<point x="220.64" y="-10"/>
			<point x="209.28" y="3.4"/>
		</contour>
		<contour>
			<point x="230.08" y="393.32" type="line"/>
			<point x="225.24" y="1456" type="line"/>
			<point x="242.76" y="1456" type="line"/>
			<point x="237.96" y="393.32" type="line"/>
		</contour>
	</outline>
</glyph>
<glyph name="quotedbl" format="2">
	<unicode hex="0022"/>
	<advance width="400"/>
	<outline>
		<contour>
			<point x="93.76" y="1115.04" type="line"/>
			<point x="91.92" y="1362.24" type="line"/>
			<point x="91.92" y="1456" type="line"/>
			<point x="100" y="1456" type="line"/>
			<point x="100" y="1362.24" type="line"/>
			<point x="98.16" y="1115.04" type="line"/>
		</contour>
		<contour>
			<point x="301.8" y="1115.04" type="line"/>
			<point x="299.96" y="1362.24" type="line"/>
			<point x="299.96" y="1456" type="line"/>
			<point x="308.08" y="1456" type="line"/>
			<point x="308.08" y="1362.24" type="line"/>
			<point x="306.24" y="1115.04" type="line"/>
		</contour>
	</outline>
</glyph>
<glyph name="dollar" format="2">
	<unicode hex="0024"/>
	<advance width="927"/>
	<outline>
		<contour>
			<point x="68.52" y="417" type="qcurve" smooth="yes"/>
			<point x="68.52" y="429" type="line"/>
			<point x="75.76" y="429" type="line"/>
			<point x="75.76" y="417" type="line" smooth="yes"/>
			<point x="75.32" y="226"/>
			<point x="303.2" y="6.04"/>
			<point x="472" y="6.04" type="qcurve" smooth="yes"/>
			<point x="645.2" y="6.04"/>
			<point x="861.6" y="205"/>
			<point x="861.6" y="361" type="qcurve" smooth="yes"/>
			<point x="861.6" y="502.24"/>
			<point x="690.32" y="676.32"/>
			<point x="493.8" y="738.6" type="qcurve" smooth="yes"/>
			<point x="309" y="797.4"/>
			<point x="102.16" y="972"/>
			<point x="102.16" y="1116" type="qcurve" smooth="yes"/>
			<point x="102.16" y="1272"/>
			<point x="306" y="1456"/>
			<point x="462" y="1456" type="qcurve" smooth="yes"/>
			<point x="635" y="1456"/>
			<point x="845.88" y="1223"/>
			<point x="845.88" y="1045" type="qcurve" smooth="yes"/>
			<point x="845.88" y="1033" type="line"/>
			<point x="838.36" y="1033" type="line"/>
			<point x="838.36" y="1045" type="line" smooth="yes"/>
			<point x="838.36" y="1218.64"/>
			<point x="631.24" y="1449.6"/>
			<point x="462" y="1449.6" type="qcurve" smooth="yes"/>
			<point x="309.4" y="1449.6"/>
			<point x="110.16" y="1269.84"/>
			<point x="110.16" y="1119" type="qcurve" smooth="yes"/>
			<point x="110.16" y="974.56"/>
			<point x="310.92" y="804.28"/>
			<point x="496.8" y="745.2" type="qcurve" smooth="yes"/>
			<point x="695.8" y="682.08"/>
			<point x="868.88" y="505"/>
			<point x="868.88" y="364" type="qcurve" smooth="yes"/>
			<point x="868.88" y="201"/>
			<point x="648" y="0"/>
			<point x="472" y="0" type="qcurve" smooth="yes"/>
			<point x="300" y="0"/>
			<point x="68.52" y="223"/>
		</contour>
		<contour>
			<point x="462.8" y="-150" type="line"/>
			<point x="462.8" y="751" type="line"/>
			<point x="471.2" y="751" type="line"/>
			<point x="471.2" y="50" type="line"/>
			<point x="471.2" y="40" type="line"/>
			<point x="471.2" y="-150" type="line"/>
		</contour>
		<contour>
			<point x="462.8" y="751" type="line"/>
			<point x="462.8" y="1396" type="line"/>
			<point x="462.8" y="1406" type="line"/>
			<point x="462.8" y="1606" type="line"/>
			<point x="471.2" y="1606" type="line"/>
			<point x="471.2" y="751" type="line"/>
		</contour>
	</outline>
</glyph>
<glyph name="quotesingle" format="2">
	<unicode hex="0027"/>
	<advance width="190"/>
	<outline>
		<contour>
			<point x="92.92" y="1115.04" type="line"/>
			<point x="91.2" y="1362.24" type="line"/>
			<point x="91.2" y="1456" type="line"/>
			<point x="99.08" y="1456" type="line"/>
			<point x="99.08" y="1362.24" type="line"/>
			<point x="97.36" y="1115.04" type="line"/>
		</contour>
	</outline>
</glyph>
<glyph name="parenleft" format="2">
	<unicode hex="0028"/>
	<advance width="503"/>
	<outline>
		<contour>
			<point x="483" y="-436" type="line"/>
			<point x="294.56" y="-357.04"/>
			<point x="100" y="130.2"/>
			<point x="100" y="515" type="qcurve" smooth="yes"/>
			<point x="100" y="525" type="line" smooth="yes"/>
			<point x="100" y="914.12"/>
			<point x="294" y="1397.36"/>
			<point x="483" y="1476" type="qcurve"/>
			<point x="483" y="1471.32" type="line"/>
			<point x="300.4" y="1393.64"/>
			<point x="107.52" y="909.68"/>
			<point x="107.52" y="532" type="qcurve" smooth="yes"/>
			<point x="107.52" y="508" type="line" smooth="yes"/>
			<point x="107.52" y="134.76"/>
			<point x="302.84" y="-356.24"/>
			<point x="483" y="-431.32" type="qcurve"/>
		</contour>
	</outline>
</glyph>
<glyph name="parenright" format="2">
	<unicode hex="0029"/>
	<advance width="503"/>
	<outline>
		<contour>
			<point x="20" y="-436" type="qcurve"/>
			<point x="20" y="-431.32" type="line"/>
			<point x="200.16" y="-356.24"/>
			<point x="395.48" y="134.76"/>
			<point x="395.48" y="508" type="qcurve" smooth="yes"/>
			<point x="395.48" y="532" type="line" smooth="yes"/>
			<point x="395.48" y="909.68"/>
			<point x="202.16" y="1393.24"/>
			<point x="20" y="1471.32" type="qcurve"/>
			<point x="20" y="1476" type="line"/>
			<point x="208.44" y="1397.04"/>
			<point x="403" y="914.12"/>
			<point x="403" y="525" type="qcurve" smooth="yes"/>
			<point x="403" y="515" type="line" smooth="yes"/>
			<point x="403" y="130.2"/>
			<point x="208.44" y="-357.04"/>
		</contour>
	</outline>
</glyph>
<glyph name="asterisk" format="2">
  <advance width="904"/>
  <unicode hex="002A"/>
  <outline>
    <contour>
      <point x="59.52" y="1126.84" type="line"/>
      <point x="62.76" y="1133.84" type="line"/>
      <point x="448.68" y="996.88" type="line"/>
      <point x="449.28" y="1446.0" type="line"/>
      <point x="456.8" y="1446.0" type="line"/>
      <point x="457.36" y="996.88" type="line"/>
      <point x="842.32" y="1133.84" type="line"/>
      <point x="844.52" y="1126.84" type="line"/>
      <point x="459.96000000000004" y="990.52" type="line"/>
      <point x="741.56" y="616.36" type="line"/>
      <point x="734.6" y="613.24" type="line"/>
      <point x="453.04" y="986.52" type="line"/>
      <point x="180.48" y="614.24" type="line"/>
      <point x="173.48" y="617.36" type="line"/>
      <point x="446.12" y="990.52" type="line"/>
    </contour>
  </outline>
</glyph>
<glyph name="plus" format="2">
  <advance width="1082"/>
  <unicode hex="002B"/>
  <outline>
    <contour>
      <point x="110.25" y="670.825" type="line"/>
      <point x="110.25" y="677.225" type="line"/>
      <point x="971.75" y="677.225" type="line"/>
      <point x="971.75" y="670.825" type="line"/>
    </contour>
    <contour>
      <point x="536.7" y="208.0" type="line"/>
      <point x="536.7" y="1140.0" type="line"/>
      <point x="545.3" y="1140.0" type="line"/>
      <point x="545.3" y="208.0" type="line"/>
    </contour>
  </outline>
</glyph>
<glyph name="comma" format="2">
	<unicode hex="002C"/>
	<advance width="452"/>
	<outline>
		<contour>
			<point x="152" y="-143.04" type="line"/>
			<point x="190.52" y="-92.64"/>
			<point x="222" y="8.2"/>
			<point x="216" y="102.36" type="qcurve" smooth="yes"/>
			<point x="214" y="134" type="line"/>
			<point x="225.08" y="135" type="line"/>
			<point x="227.08" y="104.36" type="line" smooth="yes"/>
			<point x="233.08" y="6.36"/>
			<point x="201.2" y="-94.64"/>
			<point x="160" y="-148.04" type="qcurve"/>
		</contour>
	</outline>
</glyph>
<glyph name="hyphen" format="2">
	<unicode hex="002D"/>
	<advance width="555"/>
	<outline>
		<contour>
			<point x="39.2" y="652.64" type="line"/>
			<point x="39.2" y="659.88" type="line"/>
			<point x="516.24" y="659.88" type="line"/>
			<point x="516.24" y="652.64" type="line"/>
		</contour>
	</outline>
</glyph>
<glyph name="period" format="2">
	<unicode hex="002E"/>
	<advance width="452"/>
	<outline>
		<contour>
			<point x="201.36" y="14.88" type="qcurve" smooth="yes"/>
			<point x="201.36" y="25.4"/>
			<point x="214.68" y="38.72"/>
			<point x="226.04" y="38.72" type="qcurve" smooth="yes"/>
			<point x="238.36" y="38.72"/>
			<point x="250.64" y="25.4"/>
			<point x="250.64" y="14.88" type="qcurve" smooth="yes"/>
			<point x="250.64" y="3.32"/>
			<point x="237.36" y="-10"/>
			<point x="225.04" y="-10" type="qcurve" smooth="yes"/>
			<point x="212.68" y="-10"/>
			<point x="201.36" y="3.32"/>
		</contour>
	</outline>
</glyph>
<glyph name="slash" format="2">
	<unicode hex="002F"/>
	<advance width="437"/>
	<outline>
		<contour>
			<point x="-98.8" y="-125" type="line"/>
			<point x="479.96" y="1456" type="line"/>
			<point x="489.88" y="1456" type="line"/>
			<point x="-89.88" y="-125" type="line"/>
		</contour>
	</outline>
</glyph>
<glyph name="zero" format="2">
	<unicode hex="0030"/>
	<advance width="900"/>
	<outline>
		<contour>
			<point x="105.16" y="400.88" type="qcurve" smooth="yes"/>
			<point x="105.16" y="1058.12" type="line" smooth="yes"/>
			<point x="105.16" y="1266.24"/>
			<point x="282.08" y="1476"/>
			<point x="449" y="1476" type="qcurve" smooth="yes"/>
			<point x="616" y="1476"/>
			<point x="794.84" y="1266.24"/>
			<point x="794.84" y="1058.12" type="qcurve" smooth="yes"/>
			<point x="794.84" y="400.88" type="line" smooth="yes"/>
			<point x="794.84" y="186.76"/>
			<point x="616" y="-20"/>
			<point x="449" y="-20" type="qcurve" smooth="yes"/>
			<point x="282.08" y="-20"/>
			<point x="105.16" y="186.76"/>
		</contour>
		<contour>
			<point x="112.72" y="413.88" type="line" smooth="yes"/>
			<point x="112.72" y="190.84"/>
			<point x="287" y="-12.04"/>
			<point x="449" y="-12.04" type="qcurve" smooth="yes"/>
			<point x="611.04" y="-12.04"/>
			<point x="787.32" y="192.84"/>
			<point x="787.32" y="413.88" type="qcurve" smooth="yes"/>
			<point x="787.32" y="1045.12" type="line" smooth="yes"/>
			<point x="787.32" y="1262.16"/>
			<point x="610.04" y="1469.04"/>
			<point x="449" y="1469.04" type="qcurve" smooth="yes"/>
			<point x="288" y="1469.04"/>
			<point x="112.72" y="1262.16"/>
			<point x="112.72" y="1045.12" type="qcurve" smooth="yes"/>
		</contour>
	</outline>
</glyph>
<glyph name="one" format="2">
	<unicode hex="0031"/>
	<advance width="900"/>
	<outline>
		<contour>
			<point x="492.16" y="0" type="line"/>
			<point x="492.16" y="1468.88" type="line"/>
			<point x="183" y="1339.08" type="line"/>
			<point x="179" y="1346.12" type="line"/>
			<point x="490.72" y="1476" type="line"/>
			<point x="499.72" y="1476" type="line"/>
			<point x="499.72" y="0" type="line"/>
		</contour>
	</outline>
</glyph>
<glyph name="six" format="2">
  <advance width="900"/>
  <unicode hex="0036"/>
  <outline>
    <contour>
      <point x="65.0" y="614.0" type="qcurve" smooth="yes"/>
      <point x="65.0" y="644.0" type="line" smooth="yes"/>
      <point x="65.0" y="1058.48"/>
      <point x="399.48" y="1476.0"/>
      <point x="669.64" y="1476.0" type="qcurve" smooth="yes"/>
      <point x="688.64" y="1476.0" type="line"/>
      <point x="688.64" y="1468.28" type="line"/>
      <point x="669.64" y="1468.28" type="line" smooth="yes"/>
      <point x="406.44" y="1468.28"/>
      <point x="72.64" y="1051.3600000000001"/>
      <point x="72.64" y="634.0" type="qcurve" smooth="yes"/>
      <point x="72.64" y="614.0" type="line" smooth="yes"/>
      <point x="72.64" y="285.12"/>
      <point x="292.08" y="-12.44"/>
      <point x="465.12" y="-12.44" type="qcurve" smooth="yes"/>
      <point x="634.12" y="-12.44"/>
      <point x="845.24" y="225.48"/>
      <point x="845.24" y="455.0" type="qcurve" smooth="yes"/>
      <point x="845.24" y="662.6"/>
      <point x="639.4" y="873.96"/>
      <point x="490.12" y="873.96" type="qcurve" smooth="yes"/>
      <point x="325.2" y="873.96"/>
      <point x="88.0" y="614.76"/>
      <point x="78.0" y="460.0" type="qcurve"/>
      <point x="70.32" y="460.0" type="line"/>
      <point x="80.32" y="621.04"/>
      <point x="324.0" y="881.56"/>
      <point x="490.6" y="881.56" type="qcurve" smooth="yes"/>
      <point x="645.08" y="881.56"/>
      <point x="852.84" y="668.8"/>
      <point x="852.84" y="455.0" type="qcurve" smooth="yes"/>
      <point x="852.84" y="221.0"/>
      <point x="636.8" y="-20.0"/>
      <point x="465.12" y="-20.0" type="qcurve" smooth="yes"/>
      <point x="286.44" y="-20.0"/>
      <point x="65.0" y="280.0"/>
    </contour>
  </outline>
</glyph>
<glyph name="seven" format="2">
	<unicode hex="0037"/>
	<advance width="900"/>
	<outline>
		<contour>
			<point x="269.08" y="0" type="line"/>
			<point x="782.6" y="1449.52" type="line"/>
			<point x="70" y="1449.52" type="line"/>
			<point x="70" y="1456" type="line"/>
			<point x="790.64" y="1456" type="line"/>
			<point x="790.64" y="1450.12" type="line"/>
			<point x="277.32" y="0" type="line"/>
		</contour>
	</outline>
</glyph>
<glyph name="nine" format="2">
  <advance width="900"/>
  <unicode hex="0039"/>
  <outline>
    <contour>
      <point x="47.16" y="1000.6" type="qcurve" smooth="yes"/>
      <point x="47.16" y="1234.76"/>
      <point x="263.2" y="1476.0"/>
      <point x="434.88" y="1476.0" type="qcurve" smooth="yes"/>
      <point x="613.56" y="1476.0"/>
      <point x="835.0" y="1176.0"/>
      <point x="835.0" y="842.0" type="qcurve" smooth="yes"/>
      <point x="835.0" y="812.0" type="line" smooth="yes"/>
      <point x="835.0" y="397.52"/>
      <point x="500.52" y="-20.0"/>
      <point x="230.36" y="-20.0" type="qcurve" smooth="yes"/>
      <point x="211.36" y="-20.0" type="line"/>
      <point x="211.36" y="-12.280000000000001" type="line"/>
      <point x="230.36" y="-12.280000000000001" type="line" smooth="yes"/>
      <point x="493.56" y="-12.280000000000001"/>
      <point x="827.36" y="404.64"/>
      <point x="827.36" y="822.0" type="qcurve" smooth="yes"/>
      <point x="827.36" y="842.0" type="line" smooth="yes"/>
      <point x="827.36" y="1170.88"/>
      <point x="607.92" y="1468.44"/>
      <point x="434.88" y="1468.44" type="qcurve" smooth="yes"/>
      <point x="265.88" y="1468.44"/>
      <point x="54.760000000000005" y="1230.32"/>
      <point x="54.760000000000005" y="1000.6" type="qcurve" smooth="yes"/>
      <point x="54.760000000000005" y="792.8"/>
      <point x="260.6" y="581.24"/>
      <point x="409.88" y="581.24" type="qcurve" smooth="yes"/>
      <point x="574.8" y="581.24"/>
      <point x="812.0" y="840.64"/>
      <point x="822.0" y="995.6" type="qcurve"/>
      <point x="829.68" y="995.6" type="line"/>
      <point x="819.68" y="834.4"/>
      <point x="576.0" y="573.64"/>
      <point x="409.4" y="573.64" type="qcurve" smooth="yes"/>
      <point x="254.88" y="573.64"/>
      <point x="47.16" y="786.64"/>
    </contour>
  </outline>
</glyph>
<glyph name="colon" format="2">
	<unicode hex="003A"/>
	<advance width="452"/>
	<outline>
		<contour>
			<point x="201.28" y="15" type="qcurve" smooth="yes"/>
			<point x="201.28" y="25.6"/>
			<point x="214.64" y="39"/>
			<point x="226" y="39" type="qcurve" smooth="yes"/>
			<point x="238.4" y="39"/>
			<point x="250.72" y="25.6"/>
			<point x="250.72" y="15" type="qcurve" smooth="yes"/>
			<point x="250.72" y="3.4"/>
			<point x="237.4" y="-10"/>
			<point x="225" y="-10" type="qcurve" smooth="yes"/>
			<point x="212.64" y="-10"/>
			<point x="201.28" y="3.4"/>
		</contour>
		<contour>
			<point x="201.28" y="897" type="qcurve" smooth="yes"/>
			<point x="201.28" y="907.6"/>
			<point x="214.64" y="921"/>
			<point x="226" y="921" type="qcurve" smooth="yes"/>
			<point x="238.4" y="921"/>
			<point x="250.72" y="907.6"/>
			<point x="250.72" y="897" type="qcurve" smooth="yes"/>
			<point x="250.72" y="885.4"/>
			<point x="237.4" y="872"/>
			<point x="225" y="872" type="qcurve" smooth="yes"/>
			<point x="212.64" y="872"/>
			<point x="201.28" y="885.4"/>
		</contour>
	</outline>
</glyph>
<glyph name="semicolon" format="2">
	<unicode hex="003B"/>
	<advance width="452"/>
	<outline>
		<contour>
			<point x="151.96" y="-143.04" type="line"/>
			<point x="190.52" y="-92.64"/>
			<point x="222" y="8.2"/>
			<point x="216" y="102.36" type="qcurve" smooth="yes"/>
			<point x="214" y="134" type="line"/>
			<point x="225.08" y="135" type="line"/>
			<point x="227.08" y="104.36" type="line" smooth="yes"/>
			<point x="233.08" y="6.36"/>
			<point x="201.16" y="-94.64"/>
			<point x="160" y="-148.04" type="qcurve"/>
		</contour>
		<contour>
			<point x="201.16" y="897" type="qcurve" smooth="yes"/>
			<point x="201.16" y="907.6"/>
			<point x="214.52" y="921"/>
			<point x="225.88" y="921" type="qcurve" smooth="yes"/>
			<point x="238.28" y="921"/>
			<point x="250.6" y="907.6"/>
			<point x="250.6" y="897" type="qcurve" smooth="yes"/>
			<point x="250.6" y="885.4"/>
			<point x="237.28" y="872"/>
			<point x="224.88" y="872" type="qcurve" smooth="yes"/>
			<point x="212.52" y="872"/>
			<point x="201.16" y="885.4"/>
		</contour>
	</outline>
</glyph>
<glyph name="less" format="2">
  <advance width="941"/>
  <unicode hex="003C"/>
  <outline>
    <contour>
      <point x="841.0" y="316.85" type="line"/>
      <point x="100.0" y="667.65" type="line"/>
      <point x="100.0" y="679.45" type="line"/>
      <point x="841.0" y="1032.0" type="line"/>
      <point x="841.0" y="1022.95" type="line"/>
      <point x="106.05000000000001" y="673.925" type="line"/>
      <point x="841.0" y="325.65" type="line"/>
    </contour>
  </outline>
</glyph>
<glyph name="equal" format="2">
  <advance width="942"/>
  <unicode hex="003D"/>
  <outline>
    <contour>
      <point x="100.0" y="471.125" type="line"/>
      <point x="100.0" y="477.4" type="line"/>
      <point x="842.0" y="477.4" type="line"/>
      <point x="842.0" y="471.125" type="line"/>
    </contour>
    <contour>
      <point x="100.0" y="866.15" type="line"/>
      <point x="100.0" y="872.425" type="line"/>
      <point x="842.0" y="872.425" type="line"/>
      <point x="842.0" y="866.15" type="line"/>
    </contour>
  </outline>
</glyph>
<glyph name="greater" format="2">
	<unicode hex="003E"/>
	<advance width="941"/>
	<outline>
		<contour>
			<point x="100" y="316.96" type="line"/>
			<point x="100" y="324.84" type="line"/>
			<point x="836.16" y="674.28" type="line"/>
			<point x="100" y="1024.72" type="line"/>
			<point x="100" y="1032.2" type="line"/>
			<point x="841" y="679.12" type="line"/>
			<point x="841" y="668.04" type="line"/>
		</contour>
	</outline>
</glyph>
<glyph name="question" format="2">
	<unicode hex="003F"/>
	<advance width="782"/>
	<outline>
		<contour>
			<point x="325.32" y="15" type="qcurve" smooth="yes"/>
			<point x="325.32" y="25.6"/>
			<point x="338.68" y="39"/>
			<point x="350.04" y="39" type="qcurve" smooth="yes"/>
			<point x="362.44" y="39"/>
			<point x="374.8" y="25.6"/>
			<point x="374.8" y="15" type="qcurve" smooth="yes"/>
			<point x="374.8" y="3.4"/>
			<point x="361.44" y="-10"/>
			<point x="349.04" y="-10" type="qcurve" smooth="yes"/>
			<point x="336.68" y="-10"/>
			<point x="325.32" y="3.4"/>
		</contour>
		<contour>
			<point x="65.44" y="1086" type="line"/>
			<point x="65.44" y="1130" type="line" smooth="yes"/>
			<point x="65.44" y="1279.56"/>
			<point x="244" y="1476"/>
			<point x="398.04" y="1476" type="qcurve" smooth="yes"/>
			<point x="552.08" y="1476"/>
			<point x="700.68" y="1321.8"/>
			<point x="700.68" y="1181.92" type="qcurve" smooth="yes"/>
			<point x="700.68" y="1049.56"/>
			<point x="586.16" y="893.28"/>
			<point x="483.04" y="818.04" type="qcurve" smooth="yes"/>
			<point x="380.44" y="743.32"/>
			<point x="349.6" y="533.08"/>
			<point x="349.6" y="425" type="qcurve" smooth="yes"/>
			<point x="349.6" y="415" type="line"/>
			<point x="342.44" y="415" type="line"/>
			<point x="342.44" y="425.04" type="line" smooth="yes"/>
			<point x="342.44" y="538.6"/>
			<point x="374" y="747.72"/>
			<point x="478.68" y="824.24" type="qcurve" smooth="yes"/>
			<point x="583.28" y="900.68"/>
			<point x="693" y="1053.44"/>
			<point x="693" y="1181.92" type="qcurve" smooth="yes"/>
			<point x="693" y="1315.76"/>
			<point x="546.44" y="1469.56"/>
			<point x="398.04" y="1469.56" type="qcurve" smooth="yes"/>
			<point x="248.64" y="1469.56"/>
			<point x="73.16" y="1274.56"/>
			<point x="73.16" y="1118" type="qcurve" smooth="yes"/>
			<point x="73.16" y="1086" type="line"/>
		</contour>
	</outline>
</glyph>
<glyph name="C" format="2">
	<unicode hex="0043"/>
	<advance width="1103"/>
	<outline>
		<contour>
			<point x="92.8" y="720.52" type="qcurve" smooth="yes"/>
			<point x="92.8" y="751.48" type="line" smooth="yes"/>
			<point x="92.8" y="1154.72"/>
			<point x="353.12" y="1476"/>
			<point x="593.2" y="1476" type="qcurve" smooth="yes"/>
			<point x="810.2" y="1476"/>
			<point x="1045.64" y="1251"/>
			<point x="1045.64" y="1025" type="qcurve" smooth="yes"/>
			<point x="1045.64" y="985" type="line"/>
			<point x="1038.04" y="985" type="line"/>
			<point x="1038.04" y="1019" type="line" smooth="yes"/>
			<point x="1038.04" y="1247.96"/>
			<point x="811.4" y="1469.6"/>
			<point x="592.2" y="1469.6" type="qcurve" smooth="yes"/>
			<point x="355.04" y="1469.6"/>
			<point x="100.36" y="1153.96"/>
			<point x="100.36" y="769.48" type="qcurve" smooth="yes"/>
			<point x="100.36" y="702.52" type="line" smooth="yes"/>
			<point x="100.36" y="304.04"/>
			<point x="356.04" y="-12.6"/>
			<point x="588.2" y="-12.6" type="qcurve" smooth="yes"/>
			<point x="812.4" y="-12.6"/>
			<point x="1038" y="220.04"/>
			<point x="1038.08" y="437" type="qcurve" smooth="yes"/>
			<point x="1038.08" y="471" type="line"/>
			<point x="1045.68" y="471" type="line"/>
			<point x="1045.68" y="431" type="line" smooth="yes"/>
			<point x="1045.68" y="217"/>
			<point x="813.2" y="-20"/>
			<point x="588.2" y="-20" type="qcurve" smooth="yes"/>
			<point x="355.12" y="-20"/>
			<point x="92.8" y="300.28"/>
		</contour>
	</outline>
</glyph>
<glyph name="D" format="2">
  <advance width="1100"/>
  <unicode hex="0044"/>
  <outline>
    <contour>
      <point x="150.8" y="0.0" type="line"/>
      <point x="150.8" y="1456.0" type="line"/>
      <point x="449.48" y="1456.0" type="line" smooth="yes"/>
      <point x="716.88" y="1456.0"/>
      <point x="1006.2" y="1052.8"/>
      <point x="1006.2" y="731.48" type="qcurve" smooth="yes"/>
      <point x="1006.2" y="719.52" type="line" smooth="yes"/>
      <point x="1006.2" y="373.2"/>
      <point x="681.88" y="0.0"/>
      <point x="449.48" y="0.0" type="qcurve" smooth="yes"/>
    </contour>
    <contour>
      <point x="158.36" y="7.559999999999999" type="line"/>
      <point x="449.48" y="7.559999999999999" type="line" smooth="yes"/>
      <point x="675.84" y="7.559999999999999"/>
      <point x="998.64" y="377.16"/>
      <point x="998.64" y="712.52" type="qcurve" smooth="yes"/>
      <point x="998.64" y="740.48" type="line" smooth="yes"/>
      <point x="998.64" y="1046.84"/>
      <point x="710.84" y="1448.44"/>
      <point x="449.48" y="1448.44" type="qcurve" smooth="yes"/>
      <point x="158.36" y="1448.44" type="line"/>
    </contour>
  </outline>
</glyph>
<glyph name="E" format="2">
	<unicode hex="0045"/>
	<advance width="862"/>
	<outline>
		<contour>
			<point x="150.8" y="0" type="line"/>
			<point x="150.8" y="1456" type="line"/>
			<point x="846" y="1456" type="line"/>
			<point x="846" y="1448.44" type="line"/>
			<point x="158.36" y="1448.44" type="line"/>
			<point x="158.36" y="757.76" type="line"/>
			<point x="747.56" y="757.76" type="line"/>
			<point x="747.56" y="750.24" type="line"/>
			<point x="158.36" y="750.24" type="line"/>
			<point x="158.36" y="7.56" type="line"/>
			<point x="856.04" y="7.56" type="line"/>
			<point x="856.04" y="0" type="line"/>
		</contour>
	</outline>
</glyph>
<glyph name="F" format="2">
  <advance width="771"/>
  <unicode hex="0046"/>
  <outline>
    <contour>
      <point x="150.8" y="0.0" type="line"/>
      <point x="150.8" y="1456.0" type="line"/>
      <point x="763.12" y="1456.0" type="line"/>
      <point x="763.12" y="1448.44" type="line"/>
      <point x="158.36" y="1448.44" type="line"/>
      <point x="158.36" y="758.16" type="line"/>
      <point x="697.8" y="758.16" type="line"/>
      <point x="697.8" y="750.64" type="line"/>
      <point x="158.36" y="750.64" type="line"/>
      <point x="158.36" y="0.0" type="line"/>
    </contour>
  </outline>
</glyph>
<glyph name="K" format="2">
  <advance width="910"/>
  <unicode hex="004B"/>
  <outline>
    <contour>
      <point x="150.8" y="0.0" type="line"/>
      <point x="150.8" y="1456.0" type="line"/>
      <point x="158.36" y="1456.0" type="line"/>
      <point x="158.36" y="539.28" type="line"/>
      <point x="896.72" y="1456.0" type="line"/>
      <point x="906.44" y="1456.0" type="line"/>
      <point x="158.36" y="527.04" type="line"/>
      <point x="158.36" y="0.0" type="line"/>
    </contour>
    <contour>
      <point x="954.56" y="0.0" type="line"/>
      <point x="411.68" y="843.96" type="line"/>
      <point x="416.96" y="850.16" type="line"/>
      <point x="964.2" y="0.0" type="line"/>
    </contour>
  </outline>
</glyph>
<glyph name="M" format="2">
  <advance width="1377"/>
  <unicode hex="004D"/>
  <outline>
    <contour>
      <point x="150.8" y="0.0" type="line"/>
      <point x="150.8" y="1456.0" type="line"/>
      <point x="163.6" y="1456.0" type="line"/>
      <point x="668.2" y="41.400000000000006" type="line" smooth="yes"/>
      <point x="671.24" y="34.400000000000006"/>
      <point x="678.32" y="12.399999999999999"/>
      <point x="678.36" y="8.399999999999999" type="qcurve"/>
      <point x="678.4" y="8.399999999999999" type="line"/>
      <point x="678.4" y="12.399999999999999"/>
      <point x="687.56" y="35.400000000000006"/>
      <point x="689.56" y="41.400000000000006" type="qcurve" smooth="yes"/>
      <point x="1211.48" y="1456.0" type="line"/>
      <point x="1226.2" y="1456.0" type="line"/>
      <point x="1226.2" y="0.0" type="line"/>
      <point x="1218.52" y="0.0" type="line"/>
      <point x="1218.52" y="1428.56" type="line" smooth="yes"/>
      <point x="1218.52" y="1433.56"/>
      <point x="1218.52" y="1440.56"/>
      <point x="1218.52" y="1447.56" type="qcurve"/>
      <point x="1216.56" y="1447.56" type="line"/>
      <point x="1214.52" y="1442.56"/>
      <point x="1212.36" y="1435.6"/>
      <point x="1210.36" y="1430.56" type="qcurve" smooth="yes"/>
      <point x="681.44" y="0.0" type="line"/>
      <point x="676.28" y="0.0" type="line"/>
      <point x="165.68" y="1425.56" type="line" smooth="yes"/>
      <point x="164.68" y="1427.56"/>
      <point x="161.52" y="1435.56"/>
      <point x="159.52" y="1442.56" type="qcurve"/>
      <point x="158.51999999999998" y="1442.56" type="line"/>
      <point x="158.51999999999998" y="1434.56"/>
      <point x="158.56" y="1424.56"/>
      <point x="158.56" y="1422.56" type="qcurve" smooth="yes"/>
      <point x="158.56" y="0.0" type="line"/>
    </contour>
  </outline>
</glyph>
<glyph name="N" format="2">
  <advance width="1130"/>
  <unicode hex="004E"/>
  <anchor x="567.0" y="1432.0" name="top"/>
  <outline>
    <contour>
      <point x="150.0" y="0.0" type="line"/>
      <point x="150.0" y="1456.0" type="line"/>
      <point x="157.64" y="1456.0" type="line"/>
      <point x="965.64" y="27.08" type="line" smooth="yes"/>
      <point x="967.72" y="23.08"/>
      <point x="969.72" y="20.12"/>
      <point x="971.72" y="16.08" type="qcurve"/>
      <point x="972.72" y="16.08" type="line"/>
      <point x="972.72" y="20.08"/>
      <point x="972.76" y="24.08"/>
      <point x="972.76" y="28.08" type="qcurve" smooth="yes"/>
      <point x="972.76" y="1456.0" type="line"/>
      <point x="980.36" y="1456.0" type="line"/>
      <point x="980.36" y="0.0" type="line"/>
      <point x="973.72" y="0.0" type="line"/>
      <point x="167.76" y="1423.92" type="line" smooth="yes"/>
      <point x="164.68" y="1429.92"/>
      <point x="161.64" y="1434.88"/>
      <point x="158.64" y="1440.92" type="qcurve"/>
      <point x="157.64" y="1440.92" type="line"/>
      <point x="157.64" y="1435.259"/>
      <point x="157.64" y="1428.92"/>
      <point x="157.64" y="1423.92" type="qcurve" smooth="yes"/>
      <point x="157.64" y="0.0" type="line"/>
    </contour>
  </outline>
</glyph>
<glyph name="O" format="2">
	<unicode hex="004F"/>
	<advance width="1178"/>
	<outline>
		<contour>
			<point x="92.8" y="720.52" type="qcurve" smooth="yes"/>
			<point x="92.8" y="751.48" type="line" smooth="yes"/>
			<point x="92.8" y="1141.72"/>
			<point x="364.12" y="1476"/>
			<point x="589.24" y="1476" type="qcurve" smooth="yes"/>
			<point x="815.36" y="1476"/>
			<point x="1085.2" y="1141.72"/>
			<point x="1085.2" y="751.48" type="qcurve" smooth="yes"/>
			<point x="1085.2" y="720.52" type="line" smooth="yes"/>
			<point x="1085.2" y="310.28"/>
			<point x="815.36" y="-20"/>
			<point x="589.24" y="-20" type="qcurve" smooth="yes"/>
			<point x="364.12" y="-20"/>
			<point x="92.8" y="310.28"/>
		</contour>
		<contour>
			<point x="100.36" y="702.52" type="line" smooth="yes"/>
			<point x="100.36" y="313.92"/>
			<point x="366.04" y="-12.6"/>
			<point x="588.24" y="-12.6" type="qcurve" smooth="yes"/>
			<point x="814.44" y="-12.6"/>
			<point x="1077.68" y="312.92"/>
			<point x="1077.68" y="704.52" type="qcurve" smooth="yes"/>
			<point x="1077.68" y="769.48" type="line" smooth="yes"/>
			<point x="1077.68" y="1139.08"/>
			<point x="813.44" y="1469.6"/>
			<point x="589.24" y="1469.6" type="qcurve" smooth="yes"/>
			<point x="366.08" y="1469.6"/>
			<point x="100.36" y="1139.08"/>
			<point x="100.36" y="769.48" type="qcurve" smooth="yes"/>
		</contour>
	</outline>
</glyph>
<glyph name="R" format="2">
  <advance width="954"/>
  <unicode hex="0052"/>
  <outline>
    <contour>
      <point x="150.8" y="0.0" type="line"/>
      <point x="150.8" y="1456.0" type="line"/>
      <point x="495.92" y="1456.0" type="line" smooth="yes"/>
      <point x="685.12" y="1456.0"/>
      <point x="881.92" y="1239.24"/>
      <point x="881.92" y="1065.56" type="qcurve" smooth="yes"/>
      <point x="881.92" y="889.88"/>
      <point x="694.12" y="670.28"/>
      <point x="495.92" y="670.28" type="qcurve" smooth="yes"/>
      <point x="158.36" y="670.28" type="line"/>
      <point x="158.36" y="0.0" type="line"/>
    </contour>
    <contour>
      <point x="158.36" y="677.88" type="line"/>
      <point x="495.92" y="677.88" type="line" smooth="yes"/>
      <point x="688.28" y="677.88"/>
      <point x="874.36" y="896.76"/>
      <point x="874.36" y="1065.56" type="qcurve" smooth="yes"/>
      <point x="874.36" y="1235.76"/>
      <point x="677.64" y="1448.4"/>
      <point x="495.92" y="1448.4" type="qcurve" smooth="yes"/>
      <point x="158.36" y="1448.4" type="line"/>
    </contour>
    <contour>
      <point x="935.6" y="0.0" type="line"/>
      <point x="580.88" y="681.0" type="line"/>
      <point x="589.0799999999999" y="681.0" type="line"/>
      <point x="944.84" y="0.0" type="line"/>
    </contour>
  </outline>
</glyph>
<glyph name="T" format="2">
  <advance width="940"/>
  <unicode hex="0054"/>
  <outline>
    <contour>
      <point x="10.0" y="1448.12" type="line"/>
      <point x="10.0" y="1456.0" type="line"/>
      <point x="930.08" y="1456.0" type="line"/>
      <point x="930.08" y="1448.12" type="line"/>
      <point x="474.84" y="1448.12" type="line"/>
      <point x="474.84" y="0.0" type="line"/>
      <point x="467.28" y="0.0" type="line"/>
      <point x="467.28" y="1448.12" type="line"/>
    </contour>
  </outline>
</glyph>
<glyph name="U" format="2">
	<unicode hex="0055"/>
	<advance width="1110"/>
	<outline>
		<contour>
			<point x="140" y="445.92" type="qcurve" smooth="yes"/>
			<point x="140" y="1456" type="line"/>
			<point x="147.56" y="1456" type="line"/>
			<point x="147.56" y="436.92" type="line" smooth="yes"/>
			<point x="147.56" y="199.16"/>
			<point x="361" y="-13.6"/>
			<point x="557.04" y="-13.6" type="qcurve" smooth="yes"/>
			<point x="754" y="-13.6"/>
			<point x="962.48" y="199.16"/>
			<point x="962.48" y="436.92" type="qcurve" smooth="yes"/>
			<point x="962.48" y="1456" type="line"/>
			<point x="970.04" y="1456" type="line"/>
			<point x="970.04" y="444.92" type="line" smooth="yes"/>
			<point x="970.04" y="197.48"/>
			<point x="756.12" y="-20"/>
			<point x="555.04" y="-20" type="qcurve" smooth="yes"/>
			<point x="357.96" y="-20"/>
			<point x="140" y="197.48"/>
		</contour>
	</outline>
</glyph>
<glyph name="V" format="2">
	<unicode hex="0056"/>
	<advance width="980"/>
	<outline>
		<contour>
			<point x="0.8" y="1456" type="line"/>
			<point x="8.32" y="1456" type="line"/>
			<point x="463.64" y="84.84" type="line" smooth="yes"/>
			<point x="467.76" y="73.48"/>
			<point x="482.96" y="30.16"/>
			<point x="491.12" y="5.88" type="qcurve"/>
			<point x="493.16" y="5.88" type="line"/>
			<point x="500.36" y="30.16"/>
			<point x="513.64" y="71.52"/>
			<point x="519.72" y="88.84" type="qcurve" smooth="yes"/>
			<point x="971.56" y="1456" type="line"/>
			<point x="979.08" y="1456" type="line"/>
			<point x="496.48" y="-9" type="line"/>
			<point x="487.8" y="-9" type="line"/>
		</contour>
	</outline>
</glyph>
<glyph name="X" format="2">
	<unicode hex="0058"/>
	<advance width="859"/>
	<outline>
		<contour>
			<point x="21" y="0" type="line"/>
			<point x="428" y="749" type="line"/>
			<point x="430" y="753" type="line"/>
			<point x="809" y="1456" type="line"/>
			<point x="819" y="1456" type="line"/>
			<point x="436" y="746" type="line"/>
			<point x="434" y="742" type="line"/>
			<point x="31" y="0" type="line"/>
		</contour>
		<contour>
			<point x="45" y="1456" type="line"/>
			<point x="57" y="1456" type="line"/>
			<point x="435" y="752" type="line"/>
			<point x="438" y="746" type="line"/>
			<point x="839" y="0" type="line"/>
			<point x="826" y="0" type="line"/>
			<point x="430" y="742" type="line"/>
			<point x="428" y="746" type="line"/>
		</contour>
	</outline>
</glyph>
<glyph name="Y" format="2">
  <advance width="939"/>
  <unicode hex="0059"/>
  <anchor x="471.0" y="1432.0" name="top"/>
  <outline>
    <contour>
      <point x="466" y="0.0" type="line"/>
      <point x="466" y="607" type="line"/>
      <point x="24" y="1456.0" type="line"/>
      <point x="34" y="1456.0" type="line"/>
      <point x="444" y="664" type="line" smooth="yes"/>
      <point x="456" y="641"/>
      <point x="462" y="630"/>
      <point x="470" y="616" type="qcurve"/>
      <point x="471" y="616" type="line"/>
      <point x="478" y="630"/>
      <point x="483" y="640"/>
      <point x="495" y="664" type="qcurve" smooth="yes"/>
      <point x="906" y="1456.0" type="line"/>
      <point x="914" y="1456.0" type="line"/>
      <point x="474" y="607" type="line"/>
      <point x="474" y="0.0" type="line"/>
    </contour>
  </outline>
</glyph>
<glyph name="Z" format="2">
  <advance width="958"/>
  <unicode hex="005A"/>
  <outline>
    <contour>
      <point x="35" y="0.0" type="line"/>
      <point x="35" y="12" type="line"/>
      <point x="888" y="1448" type="line"/>
      <point x="58" y="1448" type="line"/>
      <point x="58" y="1456.0" type="line"/>
      <point x="899" y="1456.0" type="line"/>
      <point x="899" y="1449" type="line"/>
      <point x="43" y="8" type="line"/>
      <point x="923" y="8" type="line"/>
      <point x="923" y="0.0" type="line"/>
    </contour>
  </outline>
</glyph>
<glyph name="bracketleft" format="2">
	<unicode hex="005B"/>
	<advance width="491"/>
	<outline>
		<contour>
			<point x="112.04" y="-310" type="line"/>
			<point x="112.04" y="1456" type="line"/>
			<point x="420.84" y="1456" type="line"/>
			<point x="420.84" y="1450.52" type="line"/>
			<point x="119.76" y="1450.52" type="line"/>
			<point x="119.76" y="-304.52" type="line"/>
			<point x="420.84" y="-304.52" type="line"/>
			<point x="420.84" y="-310" type="line"/>
		</contour>
	</outline>
</glyph>
<glyph name="backslash" format="2">
	<unicode hex="005C"/>
	<advance width="389"/>
	<outline>
		<contour>
			<point x="-99.08" y="1456" type="line"/>
			<point x="-91.12" y="1456" type="line"/>
			<point x="488.04" y="-125" type="line"/>
			<point x="480.08" y="-125" type="line"/>
		</contour>
	</outline>
</glyph>
<glyph name="bracketright" format="2">
	<unicode hex="005D"/>
	<advance width="491"/>
	<outline>
		<contour>
			<point x="378.96" y="-310" type="line"/>
			<point x="70.16" y="-310" type="line"/>
			<point x="70.16" y="-304.52" type="line"/>
			<point x="371.24" y="-304.52" type="line"/>
			<point x="371.24" y="1450.52" type="line"/>
			<point x="70.16" y="1450.52" type="line"/>
			<point x="70.16" y="1456" type="line"/>
			<point x="378.96" y="1456" type="line"/>
		</contour>
	</outline>
</glyph>
<glyph name="asciicircum" format="2">
	<unicode hex="005E"/>
	<advance width="930"/>
	<outline>
		<contour>
			<point x="70.8" y="720" type="line"/>
			<point x="461.2" y="1456" type="line"/>
			<point x="468.92" y="1456" type="line"/>
			<point x="859.32" y="720" type="line"/>
			<point x="850.64" y="720" type="line"/>
			<point x="465.08" y="1449.6" type="line"/>
			<point x="79.52" y="720" type="line"/>
		</contour>
	</outline>
</glyph>
<glyph name="underscore" format="2">
  <advance width="839"/>
  <unicode hex="005F"/>
  <outline>
    <contour>
      <point x="0.0" y="-230.07999999999998" type="line"/>
      <point x="0.0" y="-224.95999999999998" type="line"/>
      <point x="839.0" y="-224.95999999999998" type="line"/>
      <point x="839.0" y="-230.07999999999998" type="line"/>
    </contour>
  </outline>
</glyph>
<glyph name="grave" format="2">
  <advance width="1035"/>
  <unicode hex="0060"/>
  <outline>
    <contour>
      <point x="613.0" y="977.975" type="line"/>
      <point x="356.025" y="1258.0" type="line"/>
      <point x="361.475" y="1261.95" type="line"/>
      <point x="617.025" y="981.3" type="line"/>
    </contour>
  </outline>
</glyph>
<glyph name="a" format="2">
	<unicode hex="0061"/>
	<advance width="843"/>
	<outline>
		<contour>
			<point x="47" y="239" type="qcurve" smooth="yes"/>
			<point x="47" y="368"/>
			<point x="228" y="520"/>
			<point x="410" y="520" type="qcurve" smooth="yes"/>
			<point x="716" y="520" type="line"/>
			<point x="716" y="644" type="line" smooth="yes"/>
			<point x="716" y="795"/>
			<point x="569" y="926"/>
			<point x="416" y="926" type="qcurve" smooth="yes"/>
			<point x="260" y="926"/>
			<point x="94" y="792"/>
			<point x="94" y="696" type="qcurve" smooth="yes"/>
			<point x="94" y="649" type="line"/>
			<point x="85" y="649" type="line"/>
			<point x="85" y="707" type="line" smooth="yes"/>
			<point x="85" y="799"/>
			<point x="258" y="934"/>
			<point x="415" y="934" type="qcurve" smooth="yes"/>
			<point x="570" y="934"/>
			<point x="724" y="801"/>
			<point x="724" y="655" type="qcurve" smooth="yes"/>
			<point x="724" y="240" type="line" smooth="yes"/>
			<point x="724" y="166"/>
			<point x="751" y="38"/>
			<point x="767" y="3" type="qcurve"/>
			<point x="767" y="0" type="line"/>
			<point x="758" y="0" type="line"/>
			<point x="742" y="36"/>
			<point x="717" y="155"/>
			<point x="716" y="215" type="qcurve"/>
			<point x="686" y="122"/>
			<point x="462" y="-13"/>
			<point x="339" y="-13" type="qcurve" smooth="yes"/>
			<point x="209" y="-13"/>
			<point x="47" y="113"/>
		</contour>
		<contour>
			<point x="55" y="239" type="qcurve" smooth="yes"/>
			<point x="55" y="115"/>
			<point x="215" y="-5"/>
			<point x="339" y="-5" type="qcurve" smooth="yes"/>
			<point x="470" y="-5"/>
			<point x="716" y="161"/>
			<point x="716" y="276" type="qcurve"/>
			<point x="716" y="512" type="line"/>
			<point x="398" y="512" type="line" smooth="yes"/>
			<point x="230" y="512"/>
			<point x="55" y="363"/>
		</contour>
	</outline>
</glyph>
<glyph name="b" format="2">
	<unicode hex="0062"/>
	<advance width="910"/>
	<outline>
		<contour>
			<point x="123.4" y="0" type="line"/>
			<point x="123.4" y="1458" type="line"/>
			<point x="131.08" y="1458" type="line"/>
			<point x="131.08" y="755.88" type="line"/>
			<point x="169.96" y="823.28"/>
			<point x="348.6" y="934"/>
			<point x="474" y="934" type="qcurve" smooth="yes"/>
			<point x="643.04" y="934"/>
			<point x="849.32" y="689"/>
			<point x="849.32" y="473" type="qcurve" smooth="yes"/>
			<point x="849.32" y="458" type="line" smooth="yes"/>
			<point x="849.32" y="233"/>
			<point x="642.04" y="-20"/>
			<point x="468" y="-20" type="qcurve" smooth="yes"/>
			<point x="340.6" y="-20"/>
			<point x="165.32" y="95.24"/>
			<point x="131.08" y="161.32" type="qcurve"/>
			<point x="131.2" y="161.32" type="line"/>
			<point x="131.28" y="0" type="line"/>
		</contour>
		<contour>
			<point x="131.08" y="176.16" type="line"/>
			<point x="171" y="100.64"/>
			<point x="343.76" y="-12.32"/>
			<point x="468.36" y="-12.32" type="qcurve" smooth="yes"/>
			<point x="638.28" y="-12.32"/>
			<point x="841.72" y="234.04"/>
			<point x="841.72" y="452" type="qcurve" smooth="yes"/>
			<point x="841.72" y="479" type="line" smooth="yes"/>
			<point x="841.72" y="683.96"/>
			<point x="642.28" y="925.32"/>
			<point x="475.36" y="925.32" type="qcurve" smooth="yes"/>
			<point x="349.76" y="925.32"/>
			<point x="171.12" y="814.72"/>
			<point x="131.08" y="743.16" type="qcurve"/>
		</contour>
	</outline>
</glyph>
<glyph name="c" format="2">
	<unicode hex="0063"/>
	<advance width="833"/>
	<outline>
		<contour>
			<point x="60.68" y="453" type="qcurve" smooth="yes"/>
			<point x="60.68" y="463" type="line" smooth="yes"/>
			<point x="60.68" y="688"/>
			<point x="259.12" y="934"/>
			<point x="443.84" y="934" type="qcurve" smooth="yes"/>
			<point x="624.6" y="934"/>
			<point x="789.2" y="747.12"/>
			<point x="789.2" y="610" type="qcurve" smooth="yes"/>
			<point x="789.2" y="588" type="line"/>
			<point x="781.48" y="588" type="line"/>
			<point x="781.48" y="610" type="line" smooth="yes"/>
			<point x="781.48" y="740.92"/>
			<point x="621.72" y="926.32"/>
			<point x="442.84" y="926.32" type="qcurve" smooth="yes"/>
			<point x="259.92" y="926.32"/>
			<point x="69.28" y="678.96"/>
			<point x="69.28" y="474" type="qcurve" smooth="yes"/>
			<point x="69.28" y="437" type="line" smooth="yes"/>
			<point x="69.28" y="229.04"/>
			<point x="264.92" y="-12.32"/>
			<point x="447.84" y="-12.32" type="qcurve" smooth="yes"/>
			<point x="622.72" y="-12.32"/>
			<point x="787.48" y="166.08"/>
			<point x="787.48" y="302" type="qcurve" smooth="yes"/>
			<point x="787.48" y="322" type="line"/>
			<point x="795.2" y="322" type="line"/>
			<point x="795.2" y="302" type="line" smooth="yes"/>
			<point x="795.2" y="162.88"/>
			<point x="624.6" y="-20"/>
			<point x="447.84" y="-20" type="qcurve" smooth="yes"/>
			<point x="262.12" y="-20"/>
			<point x="60.68" y="222"/>
		</contour>
	</outline>
</glyph>
<glyph name="d" format="2">
  <advance width="910"/>
  <unicode hex="0064"/>
  <outline>
    <contour>
      <point x="60.68" y="458.0" type="qcurve" smooth="yes"/>
      <point x="60.68" y="474.0" type="line" smooth="yes"/>
      <point x="60.68" y="688.0"/>
      <point x="265.52" y="934.0"/>
      <point x="435.56" y="934.0" type="qcurve" smooth="yes"/>
      <point x="560.9200000000001" y="934.0"/>
      <point x="739.56" y="823.72"/>
      <point x="778.92" y="755.28" type="qcurve"/>
      <point x="778.92" y="1458.0" type="line"/>
      <point x="786.6" y="1458.0" type="line"/>
      <point x="786.6" y="0.0" type="line"/>
      <point x="778.72" y="0.0" type="line"/>
      <point x="778.8" y="170.32" type="line"/>
      <point x="777.72" y="169.96" type="line"/>
      <point x="741.16" y="104.12"/>
      <point x="564.56" y="-10.0"/>
      <point x="441.16" y="-10.0" type="qcurve" smooth="yes"/>
      <point x="267.12" y="-10.0"/>
      <point x="60.68" y="241.0"/>
    </contour>
    <contour>
      <point x="68.28" y="451.0" type="line" smooth="yes"/>
      <point x="68.28" y="244.04"/>
      <point x="270.36" y="-2.32"/>
      <point x="440.28" y="-2.32" type="qcurve" smooth="yes"/>
      <point x="564.9200000000001" y="-2.32"/>
      <point x="738.72" y="110.88"/>
      <point x="778.92" y="186.04" type="qcurve"/>
      <point x="778.92" y="743.56" type="line"/>
      <point x="738.72" y="815.16"/>
      <point x="559.4" y="925.32"/>
      <point x="433.76" y="925.32" type="qcurve" smooth="yes"/>
      <point x="266.84000000000003" y="925.32"/>
      <point x="68.28" y="683.96"/>
      <point x="68.28" y="479.0" type="qcurve" smooth="yes"/>
    </contour>
  </outline>
</glyph>
<glyph name="e" format="2">
	<unicode hex="0065"/>
	<advance width="840"/>
	<outline>
		<contour>
			<point x="60.68" y="453" type="qcurve" smooth="yes"/>
			<point x="60.68" y="463" type="line" smooth="yes"/>
			<point x="60.68" y="681"/>
			<point x="267" y="934"/>
			<point x="450.68" y="934" type="qcurve" smooth="yes"/>
			<point x="628.28" y="934"/>
			<point x="798.44" y="719"/>
			<point x="798.44" y="569" type="qcurve" smooth="yes"/>
			<point x="798.44" y="541" type="line"/>
			<point x="70" y="541" type="line"/>
			<point x="69.92" y="549.04" type="line"/>
			<point x="790.72" y="549.04" type="line"/>
			<point x="790.76" y="576.32" type="line" smooth="yes"/>
			<point x="790.76" y="710.84"/>
			<point x="624.96" y="926.32"/>
			<point x="450.36" y="926.32" type="qcurve" smooth="yes"/>
			<point x="270.84" y="926.32"/>
			<point x="69.24" y="677.04"/>
			<point x="69.24" y="474" type="qcurve" smooth="yes"/>
			<point x="69.24" y="442" type="line" smooth="yes"/>
			<point x="69.24" y="238.96"/>
			<point x="271.84" y="-12.32"/>
			<point x="460.76" y="-12.32" type="qcurve" smooth="yes"/>
			<point x="581.92" y="-12.32"/>
			<point x="744.24" y="83.76"/>
			<point x="784.4" y="146.92" type="qcurve"/>
			<point x="790.84" y="143.16" type="line"/>
			<point x="753.84" y="81.48"/>
			<point x="586.4" y="-20"/>
			<point x="458.76" y="-20" type="qcurve" smooth="yes"/>
			<point x="270.08" y="-20"/>
			<point x="60.68" y="233"/>
		</contour>
	</outline>
</glyph>
<glyph name="f" format="2">
  <advance width="372"/>
  <unicode hex="0066"/>
  <outline>
    <contour>
      <point x="164.64" y="0.0" type="line"/>
      <point x="164.64" y="1148.72" type="line" smooth="yes"/>
      <point x="164.64" y="1323.88"/>
      <point x="307.92" y="1478.0"/>
      <point x="441.32" y="1478.0" type="qcurve" smooth="yes"/>
      <point x="469.32" y="1478.0"/>
      <point x="524.3199999999999" y="1468.96"/>
      <point x="537.28" y="1465.0" type="qcurve"/>
      <point x="534.24" y="1457.4" type="line"/>
      <point x="523.28" y="1461.4"/>
      <point x="466.08" y="1471.52"/>
      <point x="440.0" y="1471.52" type="qcurve" smooth="yes"/>
      <point x="310.68" y="1471.52"/>
      <point x="172.32" y="1318.12"/>
      <point x="172.32" y="1138.72" type="qcurve" smooth="yes"/>
      <point x="172.32" y="911.92" type="line"/>
      <point x="172.32" y="909.2" type="line"/>
      <point x="172.32" y="0.0" type="line"/>
    </contour>
    <contour>
      <point x="7.0" y="906.08" type="line"/>
      <point x="7.0" y="914.0" type="line"/>
      <point x="167.72" y="914.0" type="line"/>
      <point x="170.24" y="914.0" type="line"/>
      <point x="414.12" y="914.0" type="line"/>
      <point x="414.12" y="906.08" type="line"/>
    </contour>
  </outline>
</glyph>
<glyph name="h" format="2">
	<unicode hex="0068"/>
	<advance width="908"/>
	<outline>
		<contour>
			<point x="123.4" y="0" type="line"/>
			<point x="123.4" y="1454" type="line"/>
			<point x="131.08" y="1454" type="line"/>
			<point x="131.08" y="733.84" type="line"/>
			<point x="171.32" y="807.92"/>
			<point x="355.08" y="934"/>
			<point x="489.24" y="934" type="qcurve" smooth="yes"/>
			<point x="630.96" y="934"/>
			<point x="794.6" y="804.52"/>
			<point x="794.6" y="661.12" type="qcurve" smooth="yes"/>
			<point x="794.6" y="0" type="line"/>
			<point x="785.96" y="0" type="line"/>
			<point x="785.96" y="657.12" type="line" smooth="yes"/>
			<point x="785.96" y="797.8"/>
			<point x="629.44" y="926.4"/>
			<point x="491.16" y="926.4" type="qcurve" smooth="yes"/>
			<point x="360.64" y="926.4"/>
			<point x="177.32" y="803.96"/>
			<point x="131.08" y="725.16" type="qcurve"/>
			<point x="131.08" y="0" type="line"/>
		</contour>
	</outline>
</glyph>
<glyph name="i" format="2">
	<unicode hex="0069"/>
	<advance width="256"/>
	<outline>
		<contour>
			<point x="124.16" y="0" type="line"/>
			<point x="124.16" y="914" type="line"/>
			<point x="131.84" y="914" type="line"/>
			<point x="131.84" y="0" type="line"/>
		</contour>
		<contour>
			<point x="109.4" y="1262.96" type="qcurve" smooth="yes"/>
			<point x="109.4" y="1270.48"/>
			<point x="119.68" y="1280.8"/>
			<point x="129" y="1280.8" type="qcurve" smooth="yes"/>
			<point x="138.32" y="1280.8"/>
			<point x="147.6" y="1270.48"/>
			<point x="147.6" y="1262.96" type="qcurve" smooth="yes"/>
			<point x="147.6" y="1254.44"/>
			<point x="137.32" y="1244.12"/>
			<point x="128" y="1244.12" type="qcurve" smooth="yes"/>
			<point x="118.68" y="1244.12"/>
			<point x="109.4" y="1254.44"/>
		</contour>
	</outline>
</glyph>
<glyph name="j" format="2">
	<unicode hex="006A"/>
	<advance width="278"/>
	<outline>
		<contour>
			<point x="-98.92" y="-418.12" type="qcurve"/>
			<point x="-98.92" y="-407.24" type="line"/>
			<point x="-84.84" y="-414.28"/>
			<point x="-37.92" y="-427.2"/>
			<point x="-8.72" y="-427.2" type="qcurve" smooth="yes"/>
			<point x="69.08" y="-427.2"/>
			<point x="147.12" y="-312.76"/>
			<point x="147.12" y="-200" type="qcurve" smooth="yes"/>
			<point x="147.12" y="914" type="line"/>
			<point x="154.8" y="914" type="line"/>
			<point x="154.8" y="-210" type="line" smooth="yes"/>
			<point x="154.8" y="-319"/>
			<point x="69.8" y="-436"/>
			<point x="-9.68" y="-436" type="qcurve" smooth="yes"/>
			<point x="-40.44" y="-436"/>
			<point x="-87.36" y="-423.08"/>
		</contour>
		<contour>
			<point x="133.36" y="1262.96" type="qcurve" smooth="yes"/>
			<point x="133.36" y="1270.48"/>
			<point x="143.64" y="1280.8"/>
			<point x="152.96" y="1280.8" type="qcurve" smooth="yes"/>
			<point x="162.28" y="1280.8"/>
			<point x="171.56" y="1270.48"/>
			<point x="171.56" y="1262.96" type="qcurve" smooth="yes"/>
			<point x="171.56" y="1254.44"/>
			<point x="161.28" y="1244.12"/>
			<point x="151.96" y="1244.12" type="qcurve" smooth="yes"/>
			<point x="142.64" y="1244.12"/>
			<point x="133.36" y="1254.44"/>
		</contour>
	</outline>
</glyph>
<glyph name="l" format="2">
  <advance width="262"/>
  <unicode hex="006C"/>
  <outline>
    <contour>
      <point x="127.16" y="0.0" type="line"/>
      <point x="127.16" y="1458.0" type="line"/>
      <point x="134.84" y="1458.0" type="line"/>
      <point x="134.84" y="0.0" type="line"/>
    </contour>
  </outline>
</glyph>
<glyph name="m" format="2">
  <advance width="1418"/>
  <unicode hex="006D"/>
  <outline>
    <contour>
      <point x="123.4" y="0.0" type="line"/>
      <point x="123.4" y="914.0" type="line"/>
      <point x="131.28" y="914.0" type="line"/>
      <point x="131.16" y="737.56" type="line"/>
      <point x="131.07999999999998" y="737.56" type="line"/>
      <point x="169.16" y="825.8"/>
      <point x="326.8" y="935.0"/>
      <point x="448.04" y="934.0" type="qcurve" smooth="yes"/>
      <point x="563.04" y="933.0"/>
      <point x="708.36" y="822.8"/>
      <point x="715.16" y="737.96" type="qcurve"/>
      <point x="716.04" y="737.96" type="line"/>
      <point x="737.0" y="804.8"/>
      <point x="900.8" y="934.0"/>
      <point x="1024.92" y="934.0" type="qcurve" smooth="yes"/>
      <point x="1147.48" y="934.0"/>
      <point x="1304.6" y="795.72"/>
      <point x="1304.6" y="662.56" type="qcurve" smooth="yes"/>
      <point x="1304.6" y="0.0" type="line"/>
      <point x="1296.92" y="0.0" type="line"/>
      <point x="1296.92" y="657.56" type="line" smooth="yes"/>
      <point x="1296.92" y="791.0"/>
      <point x="1144.96" y="926.4"/>
      <point x="1025.48" y="926.4" type="qcurve" smooth="yes"/>
      <point x="905.08" y="926.4"/>
      <point x="741.08" y="799.04"/>
      <point x="717.84" y="724.84" type="qcurve"/>
      <point x="717.84" y="0.0" type="line"/>
      <point x="710.16" y="0.0" type="line"/>
      <point x="710.16" y="705.56" type="line" smooth="yes"/>
      <point x="710.16" y="809.0"/>
      <point x="562.2" y="926.4"/>
      <point x="448.72" y="926.4" type="qcurve" smooth="yes"/>
      <point x="330.28" y="926.4"/>
      <point x="175.32" y="819.04"/>
      <point x="131.07999999999998" y="724.84" type="qcurve"/>
      <point x="131.07999999999998" y="0.0" type="line"/>
    </contour>
  </outline>
</glyph>
<glyph name="o" format="2">
	<unicode hex="006F"/>
	<advance width="928"/>
	<outline>
		<contour>
			<point x="60.68" y="453" type="qcurve" smooth="yes"/>
			<point x="60.68" y="463" type="line" smooth="yes"/>
			<point x="60.68" y="684"/>
			<point x="271.32" y="934"/>
			<point x="463" y="934" type="qcurve" smooth="yes"/>
			<point x="658.68" y="934"/>
			<point x="867.32" y="683"/>
			<point x="867.32" y="462" type="qcurve" smooth="yes"/>
			<point x="867.32" y="453" type="line" smooth="yes"/>
			<point x="867.32" y="230"/>
			<point x="647.68" y="-20"/>
			<point x="464" y="-20" type="qcurve" smooth="yes"/>
			<point x="280.32" y="-20"/>
			<point x="60.68" y="233"/>
		</contour>
		<contour>
			<point x="69.28" y="474" type="qcurve" smooth="yes"/>
			<point x="69.28" y="437" type="line" smooth="yes"/>
			<point x="69.28" y="237.84"/>
			<point x="283.2" y="-12.32"/>
			<point x="464" y="-12.32" type="qcurve" smooth="yes"/>
			<point x="646.8" y="-12.32"/>
			<point x="860.72" y="236.84"/>
			<point x="860.72" y="438" type="qcurve" smooth="yes"/>
			<point x="860.72" y="474" type="line" smooth="yes"/>
			<point x="860.72" y="675.76"/>
			<point x="657.8" y="926.32"/>
			<point x="463" y="926.32" type="qcurve" smooth="yes"/>
			<point x="272.2" y="926.32"/>
			<point x="69.28" y="675.76"/>
		</contour>
	</outline>
</glyph>
<glyph name="p" format="2">
	<unicode hex="0070"/>
	<advance width="910"/>
	<outline>
		<contour>
			<point x="123" y="-444" type="line"/>
			<point x="123" y="914" type="line"/>
			<point x="130.88" y="914" type="line"/>
			<point x="130.8" y="757.68" type="line"/>
			<point x="131.68" y="757.68" type="line"/>
			<point x="169.92" y="823.76"/>
			<point x="348.6" y="934"/>
			<point x="474" y="934" type="qcurve" smooth="yes"/>
			<point x="643.04" y="934"/>
			<point x="849.32" y="689"/>
			<point x="849.32" y="473" type="qcurve" smooth="yes"/>
			<point x="849.32" y="458" type="line" smooth="yes"/>
			<point x="849.32" y="233"/>
			<point x="643.04" y="-20"/>
			<point x="467" y="-20" type="qcurve" smooth="yes"/>
			<point x="341.6" y="-20"/>
			<point x="164.96" y="94.24"/>
			<point x="130.68" y="160.32" type="qcurve"/>
			<point x="130.68" y="-444" type="line"/>
		</contour>
		<contour>
			<point x="130.68" y="176.04" type="line"/>
			<point x="170.84" y="100.88"/>
			<point x="342.76" y="-12.32"/>
			<point x="468.36" y="-12.32" type="qcurve" smooth="yes"/>
			<point x="638.28" y="-12.32"/>
			<point x="841.72" y="235.04"/>
			<point x="841.72" y="452" type="qcurve" smooth="yes"/>
			<point x="841.72" y="479" type="line" smooth="yes"/>
			<point x="841.72" y="683.96"/>
			<point x="642.28" y="925.32"/>
			<point x="475.36" y="925.32" type="qcurve" smooth="yes"/>
			<point x="349.76" y="925.32"/>
			<point x="170.88" y="815.12"/>
			<point x="130.68" y="743.96" type="qcurve"/>
		</contour>
	</outline>
</glyph>
<glyph name="q" format="2">
	<unicode hex="0071"/>
	<advance width="910"/>
	<outline>
		<contour>
			<point x="60.68" y="458" type="qcurve" smooth="yes"/>
			<point x="60.68" y="474" type="line" smooth="yes"/>
			<point x="60.68" y="688"/>
			<point x="264.72" y="934"/>
			<point x="434.76" y="934" type="qcurve" smooth="yes"/>
			<point x="560.16" y="934"/>
			<point x="739.6" y="823.76"/>
			<point x="778.84" y="755.68" type="qcurve"/>
			<point x="778.72" y="755.68" type="line"/>
			<point x="778.64" y="914" type="line"/>
			<point x="786.52" y="914" type="line"/>
			<point x="786.52" y="-444" type="line"/>
			<point x="778.84" y="-444" type="line"/>
			<point x="778.84" y="170.32" type="line"/>
			<point x="778.84" y="170.32" type="line"/>
			<point x="742.56" y="104.24"/>
			<point x="564.16" y="-10"/>
			<point x="440.76" y="-10" type="qcurve" smooth="yes"/>
			<point x="266.72" y="-10"/>
			<point x="60.68" y="241"/>
		</contour>
		<contour>
			<point x="68.28" y="451" type="line" smooth="yes"/>
			<point x="68.28" y="244.04"/>
			<point x="270.44" y="-2.32"/>
			<point x="440.36" y="-2.32" type="qcurve" smooth="yes"/>
			<point x="565" y="-2.32"/>
			<point x="738.64" y="110.88"/>
			<point x="778.84" y="186.04" type="qcurve"/>
			<point x="778.84" y="743.96" type="line"/>
			<point x="738.64" y="815.12"/>
			<point x="559" y="925.32"/>
			<point x="433.36" y="925.32" type="qcurve" smooth="yes"/>
			<point x="266.44" y="925.32"/>
			<point x="68.28" y="683.96"/>
			<point x="68.28" y="479" type="qcurve" smooth="yes"/>
		</contour>
	</outline>
</glyph>
<glyph name="r" format="2">
	<unicode hex="0072"/>
	<advance width="543"/>
	<outline>
		<contour>
			<point x="123.4" y="0" type="line"/>
			<point x="123.4" y="914" type="line"/>
			<point x="131.28" y="914" type="line"/>
			<point x="131.16" y="739.68" type="line"/>
			<point x="132.08" y="739.68" type="line"/>
			<point x="170.28" y="817.8"/>
			<point x="326.96" y="934"/>
			<point x="420.4" y="934" type="qcurve" smooth="yes"/>
			<point x="455.48" y="934"/>
			<point x="512.64" y="922"/>
			<point x="523.64" y="917" type="qcurve"/>
			<point x="523.64" y="909.84" type="line"/>
			<point x="508.6" y="914.84"/>
			<point x="452.48" y="926.92"/>
			<point x="420.4" y="926.92" type="qcurve" smooth="yes"/>
			<point x="332.08" y="926.92"/>
			<point x="174.32" y="814.32"/>
			<point x="132.08" y="723.92" type="qcurve"/>
			<point x="132.08" y="0" type="line"/>
		</contour>
	</outline>
</glyph>
<glyph name="t" format="2">
  <advance width="494"/>
  <unicode hex="0074"/>
  <outline>
    <contour>
      <point x="4.640000000000001" y="906.08" type="line"/>
      <point x="4.640000000000001" y="914.0" type="line"/>
      <point x="469.52" y="914.0" type="line"/>
      <point x="469.52" y="906.08" type="line"/>
    </contour>
    <contour>
      <point x="168.16" y="252.0" type="qcurve" smooth="yes"/>
      <point x="168.16" y="907.28" type="line"/>
      <point x="168.16" y="911.8" type="line"/>
      <point x="168.16" y="1322.0" type="line"/>
      <point x="176.84" y="1322.0" type="line"/>
      <point x="176.84" y="232.0" type="line" smooth="yes"/>
      <point x="176.84" y="93.64"/>
      <point x="279.16" y="-12.52"/>
      <point x="360.48" y="-12.52" type="qcurve" smooth="yes"/>
      <point x="401.44" y="-12.52"/>
      <point x="457.4" y="-2.56"/>
      <point x="468.36" y="1.4399999999999995" type="qcurve"/>
      <point x="468.36" y="-6.24" type="line"/>
      <point x="458.44" y="-10.12"/>
      <point x="403.88" y="-20.0"/>
      <point x="362.12" y="-20.0" type="qcurve" smooth="yes"/>
      <point x="275.56" y="-20.0"/>
      <point x="168.16" y="91.0"/>
    </contour>
  </outline>
</glyph>
<glyph name="u" format="2">
	<unicode hex="0075"/>
	<advance width="908"/>
	<outline>
		<contour>
			<point x="123" y="252.88" type="qcurve" smooth="yes"/>
			<point x="123" y="914" type="line"/>
			<point x="131.68" y="914" type="line"/>
			<point x="131.68" y="256.88" type="line" smooth="yes"/>
			<point x="131.68" y="116.2"/>
			<point x="278.56" y="-12.4"/>
			<point x="418.36" y="-12.4" type="qcurve" smooth="yes"/>
			<point x="548" y="-12.4"/>
			<point x="739.84" y="109.08"/>
			<point x="786.24" y="188.44" type="qcurve"/>
			<point x="786.24" y="914" type="line"/>
			<point x="793.88" y="914" type="line"/>
			<point x="793.88" y="0" type="line"/>
			<point x="786" y="0" type="line"/>
			<point x="786.12" y="179.68" type="line"/>
			<point x="786.24" y="179.68" type="line"/>
			<point x="746" y="105.28"/>
			<point x="552.4" y="-20"/>
			<point x="418.92" y="-20" type="qcurve" smooth="yes"/>
			<point x="276.96" y="-20"/>
			<point x="123" y="109.48"/>
		</contour>
	</outline>
</glyph>
<glyph name="v" format="2">
	<unicode hex="0076"/>
	<advance width="770"/>
	<outline>
		<contour>
			<point x="18.76" y="914" type="line"/>
			<point x="28.68" y="914" type="line"/>
			<point x="373.72" y="33.76" type="line" smooth="yes"/>
			<point x="375.72" y="27.76"/>
			<point x="380.88" y="14.76"/>
			<point x="384" y="5.76" type="qcurve"/>
			<point x="386" y="5.76" type="line"/>
			<point x="389.12" y="14.76"/>
			<point x="394.28" y="28.76"/>
			<point x="396.28" y="33.76" type="qcurve" smooth="yes"/>
			<point x="743.28" y="914" type="line"/>
			<point x="751.24" y="914" type="line"/>
			<point x="392.2" y="0" type="line"/>
			<point x="377.76" y="0" type="line"/>
		</contour>
	</outline>
</glyph>
<glyph name="w" format="2">
  <advance width="1226"/>
  <unicode hex="0077"/>
  <outline>
    <contour>
      <point x="25.2" y="914.0" type="line"/>
      <point x="34.12" y="914.0" type="line"/>
      <point x="302.88" y="32.72" type="line" smooth="yes"/>
      <point x="306.88" y="20.72"/>
      <point x="309.8" y="10.719999999999999"/>
      <point x="310.88" y="5.719999999999999" type="qcurve"/>
      <point x="313.88" y="5.719999999999999" type="line"/>
      <point x="314.96" y="10.719999999999999"/>
      <point x="318.04" y="19.72"/>
      <point x="322.04" y="32.72" type="qcurve" smooth="yes"/>
      <point x="604.76" y="914.0" type="line"/>
      <point x="621.16" y="914.0" type="line"/>
      <point x="905.88" y="30.72" type="line" smooth="yes"/>
      <point x="908.88" y="21.72"/>
      <point x="913.0" y="9.719999999999999"/>
      <point x="913.08" y="7.719999999999999" type="qcurve"/>
      <point x="918.08" y="7.719999999999999" type="line"/>
      <point x="918.16" y="9.719999999999999"/>
      <point x="921.04" y="21.72"/>
      <point x="924.04" y="30.72" type="qcurve" smooth="yes"/>
      <point x="1191.76" y="914.0" type="line"/>
      <point x="1200.8" y="914.0" type="line"/>
      <point x="923.32" y="0.0" type="line"/>
      <point x="906.68" y="0.0" type="line"/>
      <point x="646.96" y="803.48" type="line" smooth="yes"/>
      <point x="637.96" y="830.48"/>
      <point x="623.0" y="879.48"/>
      <point x="614.04" y="907.48" type="qcurve"/>
      <point x="611.04" y="907.48" type="line"/>
      <point x="602.08" y="878.48"/>
      <point x="587.12" y="830.48"/>
      <point x="578.12" y="803.48" type="qcurve" smooth="yes"/>
      <point x="320.32" y="0.0" type="line"/>
      <point x="304.72" y="0.0" type="line"/>
    </contour>
  </outline>
</glyph>
<glyph name="x" format="2">
	<unicode hex="0078"/>
	<advance width="700"/>
	<outline>
		<contour>
			<point x="26" y="0" type="line"/>
			<point x="350" y="473" type="line"/>
			<point x="350" y="473" type="line"/>
			<point x="651" y="914" type="line"/>
			<point x="663" y="914" type="line"/>
			<point x="355" y="464" type="line"/>
			<point x="355" y="464" type="line"/>
			<point x="37" y="0" type="line"/>
		</contour>
		<contour>
			<point x="44" y="914" type="line"/>
			<point x="57" y="914" type="line"/>
			<point x="356" y="472" type="line"/>
			<point x="356" y="472" type="line"/>
			<point x="677" y="0" type="line"/>
			<point x="664" y="0" type="line"/>
			<point x="350" y="465" type="line"/>
			<point x="350" y="465" type="line"/>
		</contour>
	</outline>
</glyph>
<glyph name="y" format="2">
	<unicode hex="0079"/>
	<advance width="772"/>
	<outline>
		<contour>
			<point x="29.68" y="-418" type="qcurve"/>
			<point x="29.68" y="-406.44" type="line"/>
			<point x="38.6" y="-411.44"/>
			<point x="91.44" y="-428.52"/>
			<point x="117.28" y="-428.52" type="qcurve" smooth="yes"/>
			<point x="180.2" y="-428.52"/>
			<point x="290.16" y="-234.44"/>
			<point x="381.96" y="-3.04" type="qcurve"/>
			<point x="382.96" y="-0.04" type="line"/>
			<point x="20.8" y="914" type="line"/>
			<point x="27.64" y="914" type="line"/>
			<point x="345.8" y="113.08" type="line" smooth="yes"/>
			<point x="358.72" y="82.08"/>
			<point x="369.8" y="55.08"/>
			<point x="386.88" y="12.08" type="qcurve"/>
			<point x="387.88" y="12.08" type="line"/>
			<point x="402.92" y="52.08"/>
			<point x="413.96" y="82.08"/>
			<point x="426.96" y="114.08" type="qcurve" smooth="yes"/>
			<point x="742.16" y="914" type="line"/>
			<point x="751" y="914" type="line"/>
			<point x="357" y="-88" type="line" smooth="yes"/>
			<point x="297.12" y="-239.92"/>
			<point x="183.56" y="-436"/>
			<point x="117.08" y="-436" type="qcurve" smooth="yes"/>
			<point x="85.24" y="-436"/>
			<point x="40.56" y="-422.96"/>
		</contour>
	</outline>
</glyph>
<glyph name="z" format="2">
  <advance width="661"/>
  <unicode hex="007A"/>
  <outline>
    <contour>
      <point x="10.4" y="0.0" type="line"/>
      <point x="10.4" y="9.36" type="line"/>
      <point x="625.76" y="906.32" type="line"/>
      <point x="19.4" y="906.32" type="line"/>
      <point x="19.4" y="914.0" type="line"/>
      <point x="633.16" y="914.0" type="line"/>
      <point x="633.16" y="904.56" type="line"/>
      <point x="18.4" y="7.68" type="line"/>
      <point x="651.2" y="7.68" type="line"/>
      <point x="651.2" y="0.0" type="line"/>
    </contour>
  </outline>
</glyph>
<glyph name="braceleft" format="2">
  <advance width="610"/>
  <unicode hex="007B"/>
  <outline>
    <contour>
      <point x="529.3" y="-312.0" type="line"/>
      <point x="345.725" y="-312.0"/>
      <point x="238.275" y="-76.65"/>
      <point x="281.325" y="116.0" type="qcurve" smooth="yes"/>
      <point x="328.425" y="329.0" type="line" smooth="yes"/>
      <point x="355.45" y="449.3"/>
      <point x="211.3" y="570.575"/>
      <point x="90.5" y="570.575" type="qcurve"/>
      <point x="90.5" y="577.425" type="line"/>
      <point x="211.3" y="577.425"/>
      <point x="355.45" y="698.7"/>
      <point x="328.425" y="819.0" type="qcurve" smooth="yes"/>
      <point x="281.325" y="1032.0" type="line" smooth="yes"/>
      <point x="238.45" y="1223.8"/>
      <point x="344.875" y="1460.0"/>
      <point x="529.3" y="1460.0" type="qcurve"/>
      <point x="529.3" y="1453.375" type="line"/>
      <point x="351.575" y="1452.975"/>
      <point x="245.95" y="1224.125"/>
      <point x="289.9" y="1027.0" type="qcurve" smooth="yes"/>
      <point x="337.0" y="814.0" type="line" smooth="yes"/>
      <point x="360.95" y="706.0"/>
      <point x="236.35" y="582.25"/>
      <point x="127.275" y="574.0" type="qcurve"/>
      <point x="236.35" y="565.75"/>
      <point x="360.95" y="442.0"/>
      <point x="337.0" y="334.0" type="qcurve" smooth="yes"/>
      <point x="289.9" y="121.0" type="line" smooth="yes"/>
      <point x="245.75" y="-77.05000000000001"/>
      <point x="352.425" y="-304.9"/>
      <point x="529.3" y="-305.375" type="qcurve"/>
    </contour>
  </outline>
</glyph>
<glyph name="bar" format="2">
  <advance width="230"/>
  <unicode hex="007C"/>
  <outline>
    <contour>
      <point x="110.67500000000001" y="-416.0" type="line"/>
      <point x="110.67500000000001" y="1456.0" type="line"/>
      <point x="119.32499999999999" y="1456.0" type="line"/>
      <point x="119.32499999999999" y="-416.0" type="line"/>
    </contour>
  </outline>
</glyph>
<glyph name="braceright" format="2">
	<unicode hex="007D"/>
	<advance width="610"/>
	<outline>
		<contour>
			<point x="80" y="-312" type="qcurve"/>
			<point x="80" y="-306.2" type="line"/>
			<point x="255.88" y="-306.2"/>
			<point x="364.04" y="-78.32"/>
			<point x="320.04" y="120.4" type="qcurve" smooth="yes"/>
			<point x="273.28" y="334" type="line" smooth="yes"/>
			<point x="249.48" y="442.04"/>
			<point x="374.84" y="565.72"/>
			<point x="485.04" y="574" type="qcurve"/>
			<point x="375.04" y="581.84"/>
			<point x="249.4" y="705.96"/>
			<point x="273.28" y="814" type="qcurve" smooth="yes"/>
			<point x="320.32" y="1027.6" type="line" smooth="yes"/>
			<point x="364.48" y="1226.32"/>
			<point x="256.68" y="1454.2"/>
			<point x="80" y="1454.2" type="qcurve"/>
			<point x="80" y="1460" type="line"/>
			<point x="263.6" y="1460"/>
			<point x="371.08" y="1225.92"/>
			<point x="328.04" y="1032.6" type="qcurve" smooth="yes"/>
			<point x="281" y="819" type="line" smooth="yes"/>
			<point x="254.04" y="698.48"/>
			<point x="400.2" y="577.08"/>
			<point x="520.08" y="577.08" type="qcurve"/>
			<point x="520.08" y="570.92" type="line"/>
			<point x="400.2" y="570.92"/>
			<point x="254.16" y="449.52"/>
			<point x="281" y="329" type="qcurve" smooth="yes"/>
			<point x="327.76" y="115.4" type="line" smooth="yes"/>
			<point x="370.56" y="-77.68"/>
			<point x="262.08" y="-312"/>
		</contour>
	</outline>
</glyph>
<glyph name="asciitilde" format="2">
	<unicode hex="007E"/>
	<advance width="1270"/>
	<outline>
		<contour>
			<point x="228" y="645.4" type="qcurve"/>
			<point x="228" y="657.72" type="line"/>
			<point x="269" y="710.72"/>
			<point x="357" y="760.72"/>
			<point x="409" y="760.72" type="qcurve" smooth="yes"/>
			<point x="455" y="760.72"/>
			<point x="565" y="724.72"/>
			<point x="633" y="692.72" type="qcurve" smooth="yes"/>
			<point x="707" y="657.72"/>
			<point x="815" y="624.72"/>
			<point x="862" y="624.72" type="qcurve" smooth="yes"/>
			<point x="918" y="624.72"/>
			<point x="1007" y="675.72"/>
			<point x="1041" y="729.72" type="qcurve"/>
			<point x="1041" y="716.4" type="line"/>
			<point x="1007" y="666.4"/>
			<point x="918" y="618.4"/>
			<point x="862" y="618.4" type="qcurve" smooth="yes"/>
			<point x="815" y="618.4"/>
			<point x="701" y="652.4"/>
			<point x="635" y="683.4" type="qcurve" smooth="yes"/>
			<point x="575" y="712.4"/>
			<point x="455" y="754.4"/>
			<point x="409" y="754.4" type="qcurve" smooth="yes"/>
			<point x="357" y="754.4"/>
			<point x="274" y="705.4"/>
		</contour>
	</outline>
</glyph>
<glyph name="cent" format="2">
  <advance width="834"/>
  <unicode hex="00A2"/>
  <outline>
    <contour>
      <point x="447.0" y="138.95" type="qcurve" smooth="yes"/>
      <point x="613.0" y="138.95"/>
      <point x="790.025" y="347.425"/>
      <point x="790.075" y="541.0" type="qcurve"/>
      <point x="798.75" y="541.0" type="line"/>
      <point x="798.75" y="342.6"/>
      <point x="617.0" y="130.0"/>
      <point x="447.0" y="130.0" type="qcurve" smooth="yes"/>
      <point x="262.25" y="130.0"/>
      <point x="63.575" y="410.55"/>
      <point x="63.575" y="673.0" type="qcurve" smooth="yes"/>
      <point x="63.575" y="710.0" type="line" smooth="yes"/>
      <point x="63.575" y="971.7"/>
      <point x="262.575" y="1252.0"/>
      <point x="447.0" y="1252.0" type="qcurve" smooth="yes"/>
      <point x="614.25" y="1252.0"/>
      <point x="792.75" y="1050.0"/>
      <point x="792.75" y="863.0" type="qcurve"/>
      <point x="784.0" y="863.0" type="line"/>
      <point x="784.0" y="1046.75"/>
      <point x="611.0" y="1243.05"/>
      <point x="449.0" y="1243.05" type="qcurve" smooth="yes"/>
      <point x="267.5" y="1243.05"/>
      <point x="71.875" y="967.075"/>
      <point x="71.875" y="710.0" type="qcurve" smooth="yes"/>
      <point x="71.875" y="673.0" type="line" smooth="yes"/>
      <point x="71.875" y="415.0"/>
      <point x="266.5" y="138.95"/>
    </contour>
    <contour>
      <point x="442.75" y="0.0" type="line"/>
      <point x="442.75" y="187.0" type="line"/>
      <point x="442.75" y="201.0" type="line"/>
      <point x="442.75" y="708.0" type="line"/>
      <point x="451.5" y="708.0" type="line"/>
      <point x="451.5" y="200.0" type="line"/>
      <point x="451.5" y="190.0" type="line"/>
      <point x="451.5" y="0.0" type="line"/>
    </contour>
    <contour>
      <point x="442.75" y="708.0" type="line"/>
      <point x="442.75" y="1182.0" type="line"/>
      <point x="442.75" y="1192.0" type="line"/>
      <point x="442.75" y="1402.0" type="line"/>
      <point x="451.5" y="1402.0" type="line"/>
      <point x="451.5" y="1192.0" type="line"/>
      <point x="451.5" y="1179.0" type="line"/>
      <point x="451.5" y="708.0" type="line"/>
    </contour>
  </outline>
</glyph>
<glyph name="yen" format="2">
  <advance width="940"/>
  <unicode hex="00A5"/>
  <outline>
    <contour>
      <point x="51.0" y="343.75" type="line"/>
      <point x="51.0" y="352.625" type="line"/>
      <point x="897.0" y="352.625" type="line"/>
      <point x="897.0" y="343.75" type="line"/>
    </contour>
    <contour>
      <point x="51.0" y="601.0" type="line"/>
      <point x="51.0" y="610.0" type="line"/>
      <point x="464.0" y="610.0" type="line"/>
      <point x="466.0" y="606.0" type="line"/>
      <point x="474.0" y="606.0" type="line"/>
      <point x="476.0" y="610.0" type="line"/>
      <point x="897.0" y="610.0" type="line"/>
      <point x="897.0" y="601.0" type="line"/>
    </contour>
    <contour>
      <point x="465.75" y="0.0" type="line"/>
      <point x="465.75" y="602.0" type="line"/>
      <point x="10.75" y="1456.0" type="line"/>
      <point x="20.25" y="1456.0" type="line"/>
      <point x="376.5" y="788.0" type="line" smooth="yes"/>
      <point x="392.5" y="758.0"/>
      <point x="453.2" y="644.4"/>
      <point x="470.17499999999995" y="607.0" type="qcurve"/>
      <point x="470.92499999999995" y="607.0" type="line"/>
      <point x="496.875" y="662.9"/>
      <point x="548.5" y="758.0"/>
      <point x="564.5" y="788.0" type="qcurve" smooth="yes"/>
      <point x="920.75" y="1456.0" type="line"/>
      <point x="929.25" y="1456.0" type="line"/>
      <point x="474.25" y="602.0" type="line"/>
      <point x="474.25" y="0.0" type="line"/>
    </contour>
  </outline>
</glyph>
<glyph name="logicalnot" format="2">
  <advance width="924"/>
  <unicode hex="00AC"/>
  <outline>
    <contour>
      <point x="754.5" y="740.25" type="line"/>
      <point x="754.5" y="376.0" type="line"/>
      <point x="746.0" y="376.0" type="line"/>
      <point x="746.0" y="731.5" type="line"/>
      <point x="58.0" y="731.5" type="line"/>
      <point x="58.0" y="740.25" type="line"/>
    </contour>
  </outline>
</glyph>
<glyph name="plusminus" format="2">
  <advance width="1082"/>
  <unicode hex="00B1"/>
  <outline>
    <contour>
      <point x="110.0" y="670.75" type="line"/>
      <point x="110.0" y="677.25" type="line"/>
      <point x="972.0" y="677.25" type="line"/>
      <point x="972.0" y="670.75" type="line"/>
    </contour>
    <contour>
      <point x="536.75" y="208.0" type="line"/>
      <point x="536.75" y="1140.0" type="line"/>
      <point x="545.25" y="1140.0" type="line"/>
      <point x="545.25" y="208.0" type="line"/>
    </contour>
    <contour>
      <point x="110.0" y="1.25" type="line"/>
      <point x="110.0" y="7.75" type="line"/>
      <point x="972.0" y="7.75" type="line"/>
      <point x="972.0" y="1.25" type="line"/>
    </contour>
  </outline>
</glyph>
<glyph name="twosuperior" format="2">
	<unicode hex="00B2"/>
	<advance width="751"/>
	<outline>
		<contour>
			<point x="92" y="697" type="line"/>
			<point x="92" y="705" type="line"/>
			<point x="289" y="996" type="line" smooth="yes"/>
			<point x="329" y="1055"/>
			<point x="423" y="1227"/>
			<point x="423" y="1312" type="qcurve" smooth="yes"/>
			<point x="423" y="1396"/>
			<point x="343" y="1468"/>
			<point x="277" y="1468" type="qcurve" smooth="yes"/>
			<point x="201" y="1468"/>
			<point x="98" y="1345"/>
			<point x="99" y="1218" type="qcurve"/>
			<point x="91" y="1218" type="line"/>
			<point x="90" y="1349"/>
			<point x="196" y="1476"/>
			<point x="277" y="1476" type="qcurve" smooth="yes"/>
			<point x="348" y="1476"/>
			<point x="432" y="1397"/>
			<point x="432" y="1312" type="qcurve" smooth="yes"/>
			<point x="432" y="1223"/>
			<point x="337" y="1054"/>
			<point x="295" y="992" type="qcurve" smooth="yes"/>
			<point x="101" y="705" type="line"/>
			<point x="478" y="705" type="line"/>
			<point x="478" y="697" type="line"/>
		</contour>
	</outline>
</glyph>
<glyph name="acute" format="2">
  <advance width="1024"/>
  <unicode hex="00B4"/>
  <outline>
    <contour>
      <point x="401.85" y="981.25" type="line"/>
      <point x="657.575" y="1261.95" type="line"/>
      <point x="663.025" y="1258.0" type="line"/>
      <point x="406.0" y="977.975" type="line"/>
    </contour>
  </outline>
</glyph>
<glyph name="cedilla" format="2">
  <advance width="1024"/>
  <unicode hex="00B8"/>
  <outline>
    <contour>
      <point x="484.55" y="41.5" type="line"/>
      <point x="491.3" y="41.5" type="line"/>
      <point x="458.5" y="-98.0" type="line"/>
      <point x="563.15" y="-106.05"/>
      <point x="647.5" y="-179.225"/>
      <point x="647.5" y="-226.0" type="qcurve" smooth="yes"/>
      <point x="647.5" y="-307.0"/>
      <point x="490.85" y="-409.85"/>
      <point x="347.0" y="-409.75" type="qcurve"/>
      <point x="346.075" y="-402.425" type="line"/>
      <point x="484.325" y="-402.325"/>
      <point x="641.25" y="-304.325"/>
      <point x="641.25" y="-228.0" type="qcurve" smooth="yes"/>
      <point x="641.25" y="-181.85"/>
      <point x="560.6" y="-113.525"/>
      <point x="450.875" y="-104.55000000000001" type="qcurve"/>
    </contour>
  </outline>
</glyph>
<glyph name="multiply" format="2">
  <advance width="1024"/>
  <unicode hex="00D7"/>
  <outline>
    <contour>
      <point x="209.5" y="368.5" type="line"/>
      <point x="204.5" y="372.5" type="line"/>
      <point x="814.5" y="982.5" type="line"/>
      <point x="818.5" y="977.5" type="line"/>
    </contour>
    <contour>
      <point x="814.5" y="373.5" type="line"/>
      <point x="204.5" y="983.5" type="line"/>
      <point x="209.5" y="987.5" type="line"/>
      <point x="818.5" y="378.5" type="line"/>
    </contour>
  </outline>
</glyph>
<glyph name="divide" format="2">
  <advance width="1082"/>
  <unicode hex="00F7"/>
  <outline>
    <contour>
      <point x="520.8" y="1024.25" type="qcurve" smooth="yes"/>
      <point x="520.8" y="1031.925"/>
      <point x="531.4" y="1042.475"/>
      <point x="541.0" y="1042.475" type="qcurve" smooth="yes"/>
      <point x="550.625" y="1042.475"/>
      <point x="560.225" y="1031.925"/>
      <point x="560.225" y="1024.25" type="qcurve" smooth="yes"/>
      <point x="560.225" y="1015.575"/>
      <point x="549.625" y="1005.0"/>
      <point x="540.0" y="1005.0" type="qcurve" smooth="yes"/>
      <point x="530.4" y="1005.0"/>
      <point x="520.8" y="1015.575"/>
    </contour>
    <contour>
      <point x="519.8" y="321.775" type="qcurve" smooth="yes"/>
      <point x="519.8" y="329.45"/>
      <point x="530.4" y="340.0"/>
      <point x="540.0" y="340.0" type="qcurve" smooth="yes"/>
      <point x="549.625" y="340.0"/>
      <point x="559.225" y="329.45"/>
      <point x="559.225" y="321.775" type="qcurve" smooth="yes"/>
      <point x="559.225" y="313.1"/>
      <point x="548.625" y="302.525"/>
      <point x="539.0" y="302.525" type="qcurve" smooth="yes"/>
      <point x="529.4" y="302.525"/>
      <point x="519.8" y="313.1"/>
    </contour>
    <contour>
      <point x="110.0" y="670.75" type="line"/>
      <point x="110.0" y="677.25" type="line"/>
      <point x="972.0" y="677.25" type="line"/>
      <point x="972.0" y="670.75" type="line"/>
    </contour>
  </outline>
</glyph>
<glyph name="schwa" format="2">
  <advance width="840"/>
  <unicode hex="0259"/>
  <outline>
    <contour>
      <point x="779.4" y="461.0" type="qcurve" smooth="yes"/>
      <point x="779.4" y="451.0" type="line" smooth="yes"/>
      <point x="779.4" y="233.0"/>
      <point x="572.825" y="-20.0"/>
      <point x="389.025" y="-20.0" type="qcurve" smooth="yes"/>
      <point x="211.075" y="-20.0"/>
      <point x="40.3" y="195.0"/>
      <point x="40.425" y="345.0" type="qcurve" smooth="yes"/>
      <point x="40.425" y="373.375" type="line"/>
      <point x="769.45" y="373.375" type="line"/>
      <point x="769.5" y="364.6" type="line"/>
      <point x="48.975" y="364.6" type="line"/>
      <point x="49.0" y="336.8" type="line"/>
      <point x="48.975" y="202.85"/>
      <point x="215.225" y="-11.45"/>
      <point x="389.225" y="-11.45" type="qcurve" smooth="yes"/>
      <point x="568.55" y="-11.45"/>
      <point x="770.925" y="237.35"/>
      <point x="770.925" y="440.0" type="qcurve" smooth="yes"/>
      <point x="770.925" y="472.0" type="line" smooth="yes"/>
      <point x="770.925" y="674.65"/>
      <point x="567.55" y="925.45"/>
      <point x="378.975" y="925.45" type="qcurve" smooth="yes"/>
      <point x="257.875" y="925.45"/>
      <point x="95.2" y="829.025"/>
      <point x="55.075" y="765.85" type="qcurve"/>
      <point x="48.05" y="770.075" type="line"/>
      <point x="84.975" y="832.025"/>
      <point x="252.975" y="934.0"/>
      <point x="380.975" y="934.0" type="qcurve" smooth="yes"/>
      <point x="569.775" y="934.0"/>
      <point x="779.4" y="681.0"/>
    </contour>
  </outline>
</glyph>
<glyph name="circumflex" format="2">
  <advance width="1024"/>
  <unicode hex="02C6"/>
  <outline>
    <contour>
      <point x="513.625" y="1252.0" type="line"/>
      <point x="728.5" y="979.0" type="line"/>
      <point x="720.75" y="979.0" type="line"/>
      <point x="508.0" y="1246.75" type="line"/>
      <point x="298.25" y="979.0" type="line"/>
      <point x="290.5" y="979.0" type="line"/>
      <point x="502.375" y="1252.0" type="line"/>
    </contour>
  </outline>
</glyph>
<glyph name="dotaccent" format="2">
  <advance width="1024"/>
  <unicode hex="02D9"/>
  <outline>
    <contour>
      <point x="492.5" y="1075.775" type="qcurve" smooth="yes"/>
      <point x="492.5" y="1083.6"/>
      <point x="503.225" y="1094.3"/>
      <point x="513.0" y="1094.3" type="qcurve" smooth="yes"/>
      <point x="522.775" y="1094.3"/>
      <point x="532.5" y="1083.6"/>
      <point x="532.5" y="1075.775" type="qcurve" smooth="yes"/>
      <point x="532.5" y="1066.95"/>
      <point x="521.775" y="1056.25"/>
      <point x="512.0" y="1056.25" type="qcurve" smooth="yes"/>
      <point x="502.225" y="1056.25"/>
      <point x="492.5" y="1066.95"/>
    </contour>
  </outline>
</glyph>
<glyph name="tilde" format="2">
  <advance width="1024"/>
  <unicode hex="02DC"/>
  <outline>
    <contour>
      <point x="227.725" y="1040.45" type="line"/>
      <point x="266.5" y="1091.075"/>
      <point x="348.025" y="1136.675"/>
      <point x="401.025" y="1136.675" type="qcurve" smooth="yes"/>
      <point x="427.025" y="1136.675"/>
      <point x="493.025" y="1112.675"/>
      <point x="540.025" y="1086.675" type="qcurve" smooth="yes"/>
      <point x="583.025" y="1063.675"/>
      <point x="643.0" y="1042.75"/>
      <point x="667.0" y="1042.75" type="qcurve" smooth="yes"/>
      <point x="718.0" y="1042.75"/>
      <point x="791.25" y="1082.925"/>
      <point x="821.325" y="1127.2" type="qcurve"/>
      <point x="825.65" y="1123.125" type="line"/>
      <point x="793.6" y="1077.05"/>
      <point x="719.0" y="1036.0"/>
      <point x="666.0" y="1036.0" type="qcurve" smooth="yes"/>
      <point x="640.0" y="1036.0"/>
      <point x="579.0" y="1057.0"/>
      <point x="536.0" y="1081.0" type="qcurve" smooth="yes"/>
      <point x="490.0" y="1107.0"/>
      <point x="426.0" y="1130.0"/>
      <point x="400.0" y="1130.0" type="qcurve" smooth="yes"/>
      <point x="348.0" y="1130.0"/>
      <point x="269.025" y="1086.225"/>
      <point x="232.02499999999998" y="1036.225" type="qcurve"/>
    </contour>
  </outline>
</glyph>
<glyph name="hungarumlaut" format="2">
  <advance width="1024"/>
  <unicode hex="02DD"/>
  <outline>
    <contour>
      <point x="315.0" y="1290.0" type="line"/>
      <point x="556.0" y="1584.0" type="line"/>
      <point x="699.0" y="1479.0" type="line"/>
      <point x="400.0" y="1204.0" type="line"/>
    </contour>
    <contour>
      <point x="625.0" y="1290.0" type="line"/>
      <point x="866.0" y="1584.0" type="line"/>
      <point x="1009.0" y="1479.0" type="line"/>
      <point x="710.0" y="1204.0" type="line"/>
    </contour>
  </outline>
</glyph>
<glyph name="breveinvertedcomb" format="2">
  <advance width="1022"/>
  <unicode hex="030F"/>
  <outline>
    <contour>
      <point x="252.27499999999998" y="964.35" type="qcurve"/>
      <point x="246.0" y="967.975" type="line"/>
      <point x="291.075" y="1094.9"/>
      <point x="417.0" y="1208.85"/>
      <point x="512.0" y="1208.85" type="qcurve" smooth="yes"/>
      <point x="607.0" y="1208.85"/>
      <point x="732.925" y="1094.9"/>
      <point x="778.0" y="967.975" type="qcurve"/>
      <point x="771.725" y="964.35" type="line"/>
      <point x="725.55" y="1087.7"/>
      <point x="603.275" y="1199.35"/>
      <point x="512.025" y="1199.35" type="qcurve" smooth="yes"/>
      <point x="420.75" y="1199.35"/>
      <point x="298.45" y="1087.7"/>
    </contour>
  </outline>
</glyph>
<glyph name="horncomb" format="2">
  <advance width="1024"/>
  <unicode hex="031B"/>
  <outline>
    <contour>
      <point x="0.0" y="883.325" type="line"/>
      <point x="106.25" y="883.325" type="line" smooth="yes"/>
      <point x="197.325" y="883.325"/>
      <point x="278.875" y="930.575"/>
      <point x="278.875" y="983.5999999999999" type="qcurve" smooth="yes"/>
      <point x="278.875" y="1035.775"/>
      <point x="253.75" y="1127.475"/>
      <point x="237.7" y="1167.275" type="qcurve"/>
      <point x="244.075" y="1167.275" type="line"/>
      <point x="259.95" y="1128.675"/>
      <point x="287.05" y="1035.4"/>
      <point x="287.05" y="982.675" type="qcurve" smooth="yes"/>
      <point x="287.05" y="926.1"/>
      <point x="203.325" y="875.0"/>
      <point x="110.1" y="875.0" type="qcurve" smooth="yes"/>
      <point x="91.1" y="875.0"/>
      <point x="26.0" y="876.0"/>
      <point x="0.0" y="877.0" type="qcurve"/>
    </contour>
  </outline>
</glyph>
<glyph name="dotbelowcomb" format="2">
  <advance width="1024"/>
  <unicode hex="0323"/>
  <outline>
    <contour>
      <point x="491.85" y="-183.0" type="qcurve" smooth="yes"/>
      <point x="491.85" y="-175.375"/>
      <point x="502.45" y="-164.8"/>
      <point x="512.0" y="-164.8" type="qcurve" smooth="yes"/>
      <point x="521.625" y="-164.8"/>
      <point x="531.15" y="-175.35"/>
      <point x="531.15" y="-183.0" type="qcurve" smooth="yes"/>
      <point x="531.15" y="-191.625"/>
      <point x="520.55" y="-202.2"/>
      <point x="511.0" y="-202.2" type="qcurve" smooth="yes"/>
      <point x="501.375" y="-202.2"/>
      <point x="491.85" y="-191.65"/>
    </contour>
  </outline>
</glyph>
<glyph name="beta" format="2">
  <advance width="941"/>
  <unicode hex="03B2"/>
  <outline>
    <contour>
      <point x="118.575" y="-444.15" type="line"/>
      <point x="118.575" y="1006.25" type="line" smooth="yes"/>
      <point x="118.575" y="1248.5"/>
      <point x="304.725" y="1478.0"/>
      <point x="476.65" y="1478.0" type="qcurve" smooth="yes"/>
      <point x="619.375" y="1478.0"/>
      <point x="796.25" y="1280.2"/>
      <point x="796.25" y="1136.625" type="qcurve"/>
      <point x="796.25" y="979.7"/>
      <point x="615.15" y="800.925"/>
      <point x="505.775" y="795.975" type="qcurve"/>
      <point x="505.775" y="796.85" type="line"/>
      <point x="677.775" y="794.0"/>
      <point x="884.175" y="595.0"/>
      <point x="884.175" y="413.675" type="qcurve" smooth="yes"/>
      <point x="884.175" y="224.975"/>
      <point x="695.05" y="-18.975"/>
      <point x="506.725" y="-18.975" type="qcurve" smooth="yes"/>
      <point x="379.325" y="-18.975"/>
      <point x="190.15" y="66.45"/>
      <point x="127.125" y="135.725" type="qcurve"/>
      <point x="127.125" y="-444.15" type="line"/>
    </contour>
    <contour>
      <point x="507.1" y="-10.45" type="qcurve"/>
      <point x="687.625" y="-10.45"/>
      <point x="875.675" y="225.325"/>
      <point x="875.675" y="412.575" type="qcurve"/>
      <point x="875.675" y="594.925"/>
      <point x="663.9" y="791.45"/>
      <point x="467.75" y="791.45" type="qcurve" smooth="yes"/>
      <point x="320.575" y="791.45" type="line"/>
      <point x="320.575" y="800.4" type="line"/>
      <point x="467.75" y="800.4" type="line" smooth="yes"/>
      <point x="603.875" y="800.4"/>
      <point x="787.625" y="983.175"/>
      <point x="787.625" y="1136.575" type="qcurve" smooth="yes"/>
      <point x="787.625" y="1277.25"/>
      <point x="615.725" y="1469.45"/>
      <point x="471.65" y="1469.45" type="qcurve" smooth="yes"/>
      <point x="305.15" y="1469.45"/>
      <point x="127.125" y="1245.075"/>
      <point x="127.125" y="1033.25" type="qcurve" smooth="yes"/>
      <point x="127.125" y="147.575" type="line"/>
      <point x="184.875" y="79.75"/>
      <point x="373.725" y="-10.45"/>
    </contour>
  </outline>
</glyph>
<glyph name="eta" format="2">
  <advance width="880"/>
  <unicode hex="03B7"/>
  <anchor x="265.75" y="914.0" name="GRK_top"/>
  <outline>
    <contour>
      <point x="786.225" y="-443.925" type="line"/>
      <point x="786.225" y="656.7" type="line" smooth="yes"/>
      <point x="786.225" y="797.125"/>
      <point x="629.525" y="925.5"/>
      <point x="490.025" y="925.5" type="qcurve" smooth="yes"/>
      <point x="360.625" y="925.5"/>
      <point x="178.025" y="804.2"/>
      <point x="131.8" y="724.975" type="qcurve"/>
      <point x="131.8" y="0.0" type="line"/>
      <point x="123.25" y="0.0" type="line"/>
      <point x="123.25" y="914.0" type="line"/>
      <point x="131.925" y="914.0" type="line"/>
      <point x="131.875" y="734.575" type="line"/>
      <point x="131.775" y="734.575" type="line"/>
      <point x="171.95" y="808.825"/>
      <point x="356.6" y="934.0"/>
      <point x="489.85" y="934.0" type="qcurve" smooth="yes"/>
      <point x="631.65" y="934.0"/>
      <point x="794.8" y="804.325"/>
      <point x="794.75" y="660.7" type="qcurve" smooth="yes"/>
      <point x="794.75" y="-443.925" type="line"/>
    </contour>
  </outline>
</glyph>
<glyph name="Ieukran" format="2">
  <advance width="1104"/>
  <unicode hex="0404"/>
  <guideline x="211.0" y="787.0" angle="90.0" identifier="mFTeE97JTj"/>
  <outline>
    <contour>
      <point x="96.725" y="742.225" type="line"/>
      <point x="744.55" y="742.225" type="line"/>
      <point x="744.55" y="733.775" type="line"/>
      <point x="96.725" y="733.775" type="line"/>
    </contour>
    <contour>
      <point x="92.5" y="720.325" type="qcurve" smooth="yes"/>
      <point x="92.5" y="751.675" type="line" smooth="yes"/>
      <point x="92.5" y="1152.825"/>
      <point x="351.075" y="1476.0"/>
      <point x="591.125" y="1476.0" type="qcurve" smooth="yes"/>
      <point x="810.125" y="1476.0"/>
      <point x="1045.775" y="1251.0"/>
      <point x="1045.775" y="1025.0" type="qcurve" smooth="yes"/>
      <point x="1045.775" y="984.0" type="line"/>
      <point x="1037.275" y="984.0" type="line"/>
      <point x="1037.275" y="1019.0" type="line" smooth="yes"/>
      <point x="1037.275" y="1247.15"/>
      <point x="805.8" y="1467.625"/>
      <point x="591.125" y="1467.625" type="qcurve" smooth="yes"/>
      <point x="354.375" y="1467.625"/>
      <point x="100.975" y="1148.05"/>
      <point x="100.975" y="751.1" type="qcurve" smooth="yes"/>
      <point x="100.975" y="720.525" type="line" smooth="yes"/>
      <point x="100.975" y="306.4"/>
      <point x="354.4" y="-11.625"/>
      <point x="591.125" y="-11.625" type="qcurve" smooth="yes"/>
      <point x="806.075" y="-11.625"/>
      <point x="1037.3" y="220.8"/>
      <point x="1037.3" y="437.0" type="qcurve" smooth="yes"/>
      <point x="1037.3" y="472.0" type="line"/>
      <point x="1045.8" y="472.0" type="line"/>
      <point x="1045.8" y="431.0" type="line" smooth="yes"/>
      <point x="1045.8" y="217.0"/>
      <point x="810.125" y="-20.0"/>
      <point x="591.125" y="-20.0" type="qcurve" smooth="yes"/>
      <point x="351.075" y="-20.0"/>
      <point x="92.5" y="300.175"/>
    </contour>
  </outline>
</glyph>
<glyph name="Lje" format="2">
	<unicode hex="0409"/>
	<advance width="1721"/>
	<outline>
		<contour>
			<point x="300" y="1456" type="line"/>
			<point x="940" y="1456" type="line"/>
			<point x="940" y="806" type="line"/>
			<point x="1277" y="806" type="line" smooth="yes"/>
			<point x="1477" y="806"/>
			<point x="1672" y="578"/>
			<point x="1672" y="403" type="qcurve" smooth="yes"/>
			<point x="1672" y="228"/>
			<point x="1477" y="0"/>
			<point x="1277" y="0" type="qcurve" smooth="yes"/>
			<point x="930" y="0" type="line"/>
			<point x="930" y="1446" type="line"/>
			<point x="309" y="1446" type="line"/>
			<point x="271" y="532" type="line" smooth="yes"/>
			<point x="258" y="230"/>
			<point x="181" y="-20"/>
			<point x="86" y="-20" type="qcurve" smooth="yes"/>
			<point x="63" y="-20"/>
			<point x="27" y="-15"/>
			<point x="10" y="-10" type="qcurve"/>
			<point x="10" y="1" type="line"/>
			<point x="29" y="-5"/>
			<point x="65" y="-10"/>
			<point x="86" y="-10" type="qcurve" smooth="yes"/>
			<point x="174" y="-10"/>
			<point x="248" y="233"/>
			<point x="261" y="532" type="qcurve" smooth="yes"/>
		</contour>
		<contour>
			<point x="940" y="796" type="line"/>
			<point x="940" y="10" type="line"/>
			<point x="1267" y="10" type="line" smooth="yes"/>
			<point x="1472" y="10"/>
			<point x="1661" y="234"/>
			<point x="1661" y="403" type="qcurve" smooth="yes"/>
			<point x="1661" y="572"/>
			<point x="1471" y="796"/>
			<point x="1265" y="796" type="qcurve" smooth="yes"/>
		</contour>
	</outline>
</glyph>
<glyph name="Icyr" format="2">
  <advance width="1180"/>
  <unicode hex="0418"/>
  <guideline x="739" y="930" angle="90" identifier="EuP0W1JHpd"/>
  <outline>
    <contour>
      <point x="1030" y="0" type="line"/>
      <point x="1020" y="0" type="line"/>
      <point x="1020" y="1420" type="line" smooth="yes"/>
      <point x="1020.0" y="1425.0"/>
      <point x="1020" y="1431"/>
      <point x="1020" y="1437" type="qcurve"/>
      <point x="1019" y="1437" type="line"/>
      <point x="1016" y="1431"/>
      <point x="1014" y="1427"/>
      <point x="1010" y="1420" type="qcurve" smooth="yes"/>
      <point x="159" y="0" type="line"/>
      <point x="150" y="0" type="line"/>
      <point x="150" y="1456" type="line"/>
      <point x="160" y="1456" type="line"/>
      <point x="160" y="33" type="line" smooth="yes"/>
      <point x="160.0" y="29.0"/>
      <point x="160" y="25"/>
      <point x="160" y="21" type="qcurve"/>
      <point x="161" y="21" type="line"/>
      <point x="163" y="25"/>
      <point x="166" y="30"/>
      <point x="167" y="32" type="qcurve" smooth="yes"/>
      <point x="1020" y="1456" type="line"/>
      <point x="1030" y="1456" type="line"/>
    </contour>
  </outline>
</glyph>
<glyph name="Ka" format="2">
  <advance width="920"/>
  <unicode hex="041A"/>
  <guideline x="509.45" y="820.05" angle="90.0" identifier="LxfLwWU0sJ"/>
  <outline>
    <contour>
      <point x="954.175" y="0.0" type="line"/>
      <point x="423.1" y="756.0" type="line"/>
      <point x="429.0" y="763.15" type="line"/>
      <point x="965.275" y="0.0" type="line"/>
    </contour>
    <contour>
      <point x="154.725" y="762.225" type="line"/>
      <point x="424.425" y="762.225" type="line"/>
      <point x="905.975" y="1456.0" type="line"/>
      <point x="917.3" y="1456.0" type="line"/>
      <point x="429.05" y="753.775" type="line"/>
      <point x="154.725" y="753.775" type="line"/>
    </contour>
    <contour>
      <point x="150.5" y="0.0" type="line"/>
      <point x="150.5" y="1456.0" type="line"/>
      <point x="158.975" y="1456.0" type="line"/>
      <point x="158.975" y="0.0" type="line"/>
    </contour>
  </outline>
</glyph>
<glyph name="Ucyr" format="2">
  <advance width="955"/>
  <unicode hex="0423"/>
  <outline>
    <contour>
      <point x="88" y="10" type="line"/>
      <point x="110" y="-1"/>
      <point x="155" y="-10"/>
      <point x="179" y="-10" type="qcurve" smooth="yes"/>
      <point x="281.00002589950077" y="-11.000000253916674"/>
      <point x="404.81876617898024" y="172.55371171573893"/>
      <point x="485" y="370" type="qcurve"/>
      <point x="485" y="357" type="line"/>
      <point x="25" y="1456" type="line"/>
      <point x="36" y="1456" type="line"/>
      <point x="424" y="530" type="line" smooth="yes"/>
      <point x="444" y="482"/>
      <point x="466" y="429"/>
      <point x="488" y="374" type="qcurve"/>
      <point x="488" y="374" type="line"/>
      <point x="508" y="428"/>
      <point x="529" y="481"/>
      <point x="549" y="530" type="qcurve" smooth="yes"/>
      <point x="919" y="1456" type="line"/>
      <point x="930" y="1456" type="line"/>
      <point x="495" y="370" type="line" smooth="yes"/>
      <point x="419.5711312792069" y="181.68792774533026"/>
      <point x="292.0" y="-20.0"/>
      <point x="179" y="-20" type="qcurve" smooth="yes"/>
      <point x="150" y="-20"/>
      <point x="104" y="-9"/>
      <point x="88" y="-1" type="qcurve"/>
    </contour>
  </outline>
</glyph>
<glyph name="de" format="2">
	<unicode hex="0434"/>
	<advance width="938"/>
	<outline>
		<contour>
			<point x="908" y="-258" type="line"/>
			<point x="908" y="0" type="line"/>
			<point x="20" y="0" type="line"/>
			<point x="20" y="-258" type="line"/>
			<point x="10" y="-258" type="line"/>
			<point x="10" y="10" type="line"/>
			<point x="918" y="10" type="line"/>
			<point x="918" y="-258" type="line"/>
		</contour>
		<contour>
			<point x="228" y="904" type="line"/>
			<point x="194" y="344" type="line" smooth="yes"/>
			<point x="187" y="233"/>
			<point x="160" y="70"/>
			<point x="132" y="6" type="qcurve"/>
			<point x="121" y="6" type="line"/>
			<point x="151" y="74"/>
			<point x="177" y="236"/>
			<point x="184" y="345" type="qcurve" smooth="yes"/>
			<point x="219" y="914" type="line"/>
			<point x="773" y="914" type="line"/>
			<point x="773" y="0" type="line"/>
			<point x="763" y="0" type="line"/>
			<point x="763" y="904" type="line"/>
		</contour>
	</outline>
	<guideline x="677" y="-171" angle="0" identifier="ZYqCS9pO7Y"/>
</glyph>
<glyph name="en" format="2">
  <advance width="908"/>
  <unicode hex="043D"/>
  <outline>
    <contour>
      <point x="123.25" y="914.0" type="line"/>
      <point x="131.8" y="914.0" type="line"/>
      <point x="131.8" y="467.25" type="line"/>
      <point x="776.2" y="467.25" type="line"/>
      <point x="776.2" y="914.0" type="line"/>
      <point x="784.75" y="914.0" type="line"/>
      <point x="784.75" y="0.0" type="line"/>
      <point x="776.2" y="0.0" type="line"/>
      <point x="776.2" y="458.625" type="line"/>
      <point x="131.8" y="458.625" type="line"/>
      <point x="131.8" y="0.0" type="line"/>
      <point x="123.25" y="0.0" type="line"/>
    </contour>
  </outline>
</glyph>
<glyph name="ef" format="2">
	<unicode hex="0444"/>
	<advance width="1078"/>
	<outline>
		<contour>
			<point x="70" y="442" type="line" smooth="yes"/>
			<point x="70" y="238"/>
			<point x="315" y="-3"/>
			<point x="534" y="-10" type="qcurve"/>
			<point x="534" y="924" type="line"/>
			<point x="314" y="917"/>
			<point x="70" y="676"/>
			<point x="70" y="472" type="qcurve" smooth="yes"/>
		</contour>
		<contour>
			<point x="1008" y="472" type="line" smooth="yes"/>
			<point x="1008" y="676"/>
			<point x="763" y="917"/>
			<point x="544" y="924" type="qcurve"/>
			<point x="544" y="-10" type="line"/>
			<point x="763" y="-3"/>
			<point x="1008" y="238"/>
			<point x="1008" y="442" type="qcurve" smooth="yes"/>
		</contour>
		<contour>
			<point x="534" y="-20" type="line"/>
			<point x="307" y="-11"/>
			<point x="60" y="234"/>
			<point x="60" y="442" type="qcurve" smooth="yes"/>
			<point x="60" y="472" type="line" smooth="yes"/>
			<point x="60" y="680"/>
			<point x="308" y="925"/>
			<point x="534" y="934" type="qcurve"/>
			<point x="534" y="1458" type="line"/>
			<point x="544" y="1458" type="line"/>
			<point x="544" y="934" type="line"/>
			<point x="771" y="925"/>
			<point x="1018" y="680"/>
			<point x="1018" y="472" type="qcurve" smooth="yes"/>
			<point x="1018" y="442" type="line" smooth="yes"/>
			<point x="1018" y="234"/>
			<point x="771" y="-11"/>
			<point x="544" y="-20" type="qcurve"/>
			<point x="544" y="-444" type="line"/>
			<point x="534" y="-444" type="line"/>
		</contour>
	</outline>
</glyph>
<glyph name="che" format="2">
  <advance width="848"/>
  <unicode hex="0447"/>
  <guideline x="815" y="650" angle="90" identifier="2ksgYkScJq"/>
  <guideline x="855" y="765" angle="90" identifier="ziGbxbHnpn"/>
  <outline>
    <contour>
      <point x="95" y="725" type="line" smooth="yes"/>
      <point x="95" y="525"/>
      <point x="245" y="392"/>
      <point x="397" y="392" type="qcurve" smooth="yes"/>
      <point x="489" y="392"/>
      <point x="640" y="411"/>
      <point x="720" y="430" type="qcurve"/>
      <point x="720" y="420" type="line"/>
      <point x="640" y="401"/>
      <point x="495" y="382"/>
      <point x="397" y="382" type="qcurve" smooth="yes"/>
      <point x="240" y="382"/>
      <point x="84" y="522"/>
      <point x="85" y="725" type="qcurve" smooth="yes"/>
      <point x="85" y="914" type="line"/>
      <point x="95" y="914" type="line"/>
    </contour>
    <contour>
      <point x="725" y="914" type="line"/>
      <point x="725" y="0" type="line"/>
      <point x="715" y="0" type="line"/>
      <point x="715" y="914" type="line"/>
    </contour>
  </outline>
</glyph>
<glyph name="sha" format="2">
	<unicode hex="0448"/>
	<advance width="1312"/>
	<outline>
		<contour>
			<point x="123" y="0" type="line"/>
			<point x="123" y="914" type="line"/>
			<point x="133" y="914" type="line"/>
			<point x="133" y="10" type="line"/>
			<point x="651" y="10" type="line"/>
			<point x="651" y="914" type="line"/>
			<point x="661" y="914" type="line"/>
			<point x="661" y="10" type="line"/>
			<point x="1179" y="10" type="line"/>
			<point x="1179" y="914" type="line"/>
			<point x="1189" y="914" type="line"/>
			<point x="1189" y="0" type="line"/>
		</contour>
	</outline>
</glyph>
<glyph name="soft" format="2">
	<unicode hex="044C"/>
	<advance width="825"/>
	<outline>
		<contour>
			<point x="133" y="914" type="line"/>
			<point x="133" y="544" type="line"/>
			<point x="480" y="544" type="line" smooth="yes"/>
			<point x="627" y="544"/>
			<point x="765" y="393"/>
			<point x="765" y="272" type="qcurve" smooth="yes"/>
			<point x="765" y="151"/>
			<point x="628" y="0"/>
			<point x="480" y="0" type="qcurve" smooth="yes"/>
			<point x="123" y="0" type="line"/>
			<point x="123" y="914" type="line"/>
		</contour>
		<contour>
			<point x="475" y="534" type="qcurve" smooth="yes"/>
			<point x="133" y="534" type="line"/>
			<point x="133" y="10" type="line"/>
			<point x="475" y="10" type="line" smooth="yes"/>
			<point x="622" y="10"/>
			<point x="754" y="155"/>
			<point x="754" y="272" type="qcurve" smooth="yes"/>
			<point x="754" y="388"/>
			<point x="622" y="534"/>
		</contour>
	</outline>
</glyph>
<glyph name="ecyr" format="2">
  <advance width="834"/>
  <unicode hex="044D"/>
  <outline>
    <contour>
      <point x="774" y="453" type="line" smooth="yes"/>
      <point x="774.0" y="223.0"/>
      <point x="572" y="-20"/>
      <point x="386" y="-20" type="qcurve" smooth="yes"/>
      <point x="209.0" y="-20.0"/>
      <point x="38" y="161"/>
      <point x="38" y="299" type="qcurve" smooth="yes"/>
      <point x="38" y="319" type="line"/>
      <point x="48" y="319" type="line"/>
      <point x="48" y="299" type="line" smooth="yes"/>
      <point x="48.0" y="166.0"/>
      <point x="212.0" y="-10.0"/>
      <point x="386" y="-10" type="qcurve" smooth="yes"/>
      <point x="568" y="-10"/>
      <point x="764.0" y="229.0"/>
      <point x="764" y="454" type="qcurve" smooth="yes"/>
      <point x="764" y="461" type="line" smooth="yes"/>
      <point x="764.0" y="680.0"/>
      <point x="572.0" y="924.0"/>
      <point x="390" y="924" type="qcurve" smooth="yes"/>
      <point x="212.0" y="924.0"/>
      <point x="54.0" y="751.0"/>
      <point x="54" y="627" type="qcurve" smooth="yes"/>
      <point x="54" y="605" type="line"/>
      <point x="44" y="605" type="line"/>
      <point x="44" y="627" type="line" smooth="yes"/>
      <point x="44" y="757"/>
      <point x="209.0" y="934.0"/>
      <point x="390" y="934" type="qcurve" smooth="yes"/>
      <point x="575" y="934"/>
      <point x="774.0" y="689.0"/>
      <point x="774" y="463" type="qcurve" smooth="yes"/>
    </contour>
    <contour>
      <point x="769" y="468" type="line"/>
      <point x="769" y="458" type="line"/>
      <point x="297" y="458" type="line"/>
      <point x="297" y="468" type="line"/>
    </contour>
  </outline>
</glyph>
<glyph name="ieukran" format="2">
  <advance width="834"/>
  <unicode hex="0454"/>
  <outline>
    <contour>
      <point x="60.425" y="453.0" type="qcurve" smooth="yes"/>
      <point x="60.425" y="463.0" type="line" smooth="yes"/>
      <point x="60.425" y="688.0"/>
      <point x="259.075" y="934.0"/>
      <point x="443.9" y="934.0" type="qcurve" smooth="yes"/>
      <point x="624.75" y="934.0"/>
      <point x="789.5" y="757.075"/>
      <point x="789.5" y="627.0" type="qcurve" smooth="yes"/>
      <point x="789.5" y="605.0" type="line"/>
      <point x="780.925" y="605.0" type="line"/>
      <point x="780.925" y="627.0" type="line" smooth="yes"/>
      <point x="780.925" y="751.575"/>
      <point x="622.45" y="925.45"/>
      <point x="443.9" y="925.45" type="qcurve" smooth="yes"/>
      <point x="261.325" y="925.45"/>
      <point x="68.925" y="680.6"/>
      <point x="68.925" y="460.45" type="qcurve" smooth="yes"/>
      <point x="68.925" y="454.25" type="line" smooth="yes"/>
      <point x="68.925" y="228.4"/>
      <point x="265.325" y="-11.45"/>
      <point x="447.9" y="-11.45" type="qcurve" smooth="yes"/>
      <point x="622.45" y="-11.45"/>
      <point x="786.925" y="165.425"/>
      <point x="786.925" y="299.0" type="qcurve" smooth="yes"/>
      <point x="786.925" y="319.0" type="line"/>
      <point x="795.5" y="319.0" type="line"/>
      <point x="795.5" y="299.0" type="line" smooth="yes"/>
      <point x="795.5" y="160.925"/>
      <point x="624.75" y="-20.0"/>
      <point x="447.9" y="-20.0" type="qcurve" smooth="yes"/>
      <point x="262.075" y="-20.0"/>
      <point x="60.425" y="222.0"/>
    </contour>
    <contour>
      <point x="64.65" y="467.25" type="line"/>
      <point x="537.025" y="467.25" type="line"/>
      <point x="537.025" y="458.625" type="line"/>
      <point x="64.65" y="458.625" type="line"/>
    </contour>
  </outline>
</glyph>
<glyph name="Tedescender-cy" format="2">
  <advance width="940"/>
  <unicode hex="04AC"/>
  <outline>
    <contour>
      <point x="656.725" y="-280.0" type="line"/>
      <point x="656.725" y="0.0" type="line"/>
      <point x="466.8" y="0.0" type="line"/>
      <point x="466.8" y="1447.325" type="line"/>
      <point x="10.0" y="1447.325" type="line"/>
      <point x="10.0" y="1456.0" type="line"/>
      <point x="930.05" y="1456.0" type="line"/>
      <point x="930.05" y="1447.325" type="line"/>
      <point x="475.275" y="1447.325" type="line"/>
      <point x="475.275" y="8.45" type="line"/>
      <point x="665.525" y="8.45" type="line"/>
      <point x="665.525" y="-280.0" type="line"/>
    </contour>
  </outline>
</glyph>
<glyph name="hadescender" format="2">
  <advance width="772"/>
  <unicode hex="04B3"/>
  <outline>
    <contour>
      <point x="27.6" y="0.0" type="line"/>
      <point x="351.5" y="473.575" type="line"/>
      <point x="351.5" y="473.575" type="line"/>
      <point x="651.825" y="914.0" type="line"/>
      <point x="661.275" y="914.0" type="line"/>
      <point x="353.45" y="463.425" type="line"/>
      <point x="353.45" y="463.425" type="line"/>
      <point x="37.05" y="0.0" type="line"/>
    </contour>
    <contour>
      <point x="43.675" y="914.0" type="line"/>
      <point x="54.125" y="914.0" type="line"/>
      <point x="352.475" y="472.575" type="line"/>
      <point x="352.5" y="472.575" type="line"/>
      <point x="670.5" y="4.125" type="line"/>
      <point x="670.5" y="0.0" type="line"/>
      <point x="662.775" y="0.0" type="line"/>
      <point x="349.575" y="464.425" type="line"/>
      <point x="349.55" y="464.425" type="line"/>
    </contour>
    <contour>
      <point x="662.775" y="8.625" type="line"/>
      <point x="791.65" y="8.625" type="line"/>
      <point x="791.65" y="-258.0" type="line"/>
      <point x="782.8" y="-258.0" type="line"/>
      <point x="782.8" y="0.0" type="line"/>
      <point x="662.775" y="0.0" type="line"/>
    </contour>
  </outline>
</glyph>
<glyph name="chedescender-cy" format="2">
  <advance width="890"/>
  <unicode hex="04B7"/>
  <outline>
    <contour>
      <point x="94.0" y="725.05" type="line" smooth="yes"/>
      <point x="94.0" y="524.5840830449825"/>
      <point x="244.75" y="390.85"/>
      <point x="397.125" y="390.85" type="qcurve" smooth="yes"/>
      <point x="489.625" y="390.85"/>
      <point x="640.4" y="409.675"/>
      <point x="720.225" y="428.7" type="qcurve"/>
      <point x="720.225" y="420.1" type="line"/>
      <point x="640.375" y="401.025"/>
      <point x="495.57500000000005" y="382.25"/>
      <point x="398.025" y="382.25" type="qcurve" smooth="yes"/>
      <point x="240.60000000000002" y="382.25"/>
      <point x="84.45" y="521.9287262872625"/>
      <point x="85.45" y="724.8" type="qcurve" smooth="yes"/>
      <point x="85.45" y="914.0" type="line"/>
      <point x="94.0" y="914.0" type="line"/>
    </contour>
    <contour>
      <point x="860.65" y="-258.0" type="line"/>
      <point x="860.65" y="0.0" type="line"/>
      <point x="715.95" y="0.0" type="line"/>
      <point x="715.95" y="914.0" type="line"/>
      <point x="724.5" y="914.0" type="line"/>
      <point x="724.5" y="8.625" type="line"/>
      <point x="869.5" y="8.625" type="line"/>
      <point x="869.5" y="-258.0" type="line"/>
    </contour>
  </outline>
</glyph>
<glyph name="cheverticalstroke-cy" format="2">
  <advance width="848"/>
  <unicode hex="04B9"/>
  <outline>
    <contour>
      <point x="409.925" y="681.975" type="line"/>
      <point x="409.925" y="140.0" type="line"/>
      <point x="401.55" y="140.0" type="line"/>
      <point x="401.55" y="681.975" type="line"/>
    </contour>
    <contour>
      <point x="94.0" y="715.05" type="line" smooth="yes"/>
      <point x="94.0" y="524.5840830449825"/>
      <point x="244.629213483145" y="390.85"/>
      <point x="396.875" y="390.85" type="qcurve" smooth="yes"/>
      <point x="489.70880281690245" y="390.85"/>
      <point x="641.07398776913" y="409.981336988705"/>
      <point x="720.975" y="429.2" type="qcurve"/>
      <point x="720.975" y="420.6" type="line"/>
      <point x="641.0501258303375" y="401.3319206134975"/>
      <point x="495.65669014084506" y="382.25"/>
      <point x="397.775" y="382.25" type="qcurve" smooth="yes"/>
      <point x="240.4848101265825" y="382.25"/>
      <point x="85.45" y="521.9287262872625"/>
      <point x="85.45" y="714.8" type="qcurve" smooth="yes"/>
      <point x="85.45" y="914.0" type="line"/>
      <point x="94.0" y="914.0" type="line"/>
    </contour>
    <contour>
      <point x="716.2" y="0.0" type="line"/>
      <point x="716.2" y="914.0" type="line"/>
      <point x="724.75" y="914.0" type="line"/>
      <point x="724.75" y="0.0" type="line"/>
    </contour>
  </outline>
</glyph>
<glyph name="obarcyr" format="2">
	<unicode hex="04E9"/>
	<advance width="928"/>
	<outline>
		<contour>
			<point x="65" y="468" type="line"/>
			<point x="863" y="468" type="line"/>
			<point x="863" y="458" type="line"/>
			<point x="65" y="458" type="line"/>
		</contour>
		<contour>
			<point x="60" y="453" type="qcurve" smooth="yes"/>
			<point x="60" y="463" type="line" smooth="yes"/>
			<point x="60" y="684"/>
			<point x="271" y="934"/>
			<point x="463" y="934" type="qcurve" smooth="yes"/>
			<point x="659" y="934"/>
			<point x="868" y="683"/>
			<point x="868" y="462" type="qcurve" smooth="yes"/>
			<point x="868" y="453" type="line" smooth="yes"/>
			<point x="868" y="230"/>
			<point x="648" y="-20"/>
			<point x="464" y="-20" type="qcurve" smooth="yes"/>
			<point x="280" y="-20"/>
			<point x="60" y="233"/>
		</contour>
		<contour>
			<point x="70" y="474" type="qcurve" smooth="yes"/>
			<point x="70" y="437" type="line" smooth="yes"/>
			<point x="70" y="240"/>
			<point x="284" y="-10"/>
			<point x="464" y="-10" type="qcurve" smooth="yes"/>
			<point x="646" y="-10"/>
			<point x="858" y="239"/>
			<point x="858" y="438" type="qcurve" smooth="yes"/>
			<point x="858" y="474" type="line" smooth="yes"/>
			<point x="858" y="674"/>
			<point x="657" y="924"/>
			<point x="463" y="924" type="qcurve" smooth="yes"/>
			<point x="273" y="924"/>
			<point x="70" y="674"/>
		</contour>
	</outline>
</glyph>
<glyph name="fraction" format="2">
	<unicode hex="2044"/>
	<advance width="342"/>
	<outline>
		<contour>
			<point x="613.2" y="1437.48" type="line"/>
			<point x="-244.92" y="13.68" type="line"/>
			<point x="-250.24" y="17.36" type="line"/>
			<point x="605.76" y="1439.28" type="line"/>
		</contour>
	</outline>
	<guideline x="0" y="901" angle="0" identifier="tcCoNUQTdD"/>
	<guideline x="0" y="555" angle="0" identifier="0lx51aIE0d"/>
</glyph>
<glyph name="coloncurrency" format="2">
  <advance width="1085"/>
  <unicode hex="20A1"/>
  <guideline x="0" y="1570.0" angle="0" identifier="0DwZ2nfhdf"/>
  <outline>
    <contour>
      <point x="838.5" y="1570.0" type="line"/>
      <point x="817.5" y="1429.0" type="line"/>
      <point x="816.75" y="1422.0" type="line"/>
      <point x="614.75" y="-10.0" type="line"/>
      <point x="613.5" y="-16.0" type="line"/>
      <point x="598.5" y="-125.0" type="line"/>
      <point x="589.75" y="-125.0" type="line"/>
      <point x="604.75" y="-16.0" type="line"/>
      <point x="605.5" y="-11.0" type="line"/>
      <point x="808.5" y="1426.0" type="line"/>
      <point x="809.75" y="1433.0" type="line"/>
      <point x="829.75" y="1570.0" type="line"/>
    </contour>
    <contour>
      <point x="597.5" y="1570.0" type="line"/>
      <point x="583.5" y="1474.0" type="line"/>
      <point x="582.75" y="1467.0" type="line"/>
      <point x="377.75" y="32.0" type="line"/>
      <point x="376.5" y="25.0" type="line"/>
      <point x="355.5" y="-125.0" type="line"/>
      <point x="345.75" y="-125.0" type="line"/>
      <point x="367.75" y="28.0" type="line"/>
      <point x="368.5" y="35.0" type="line"/>
      <point x="573.5" y="1469.0" type="line"/>
      <point x="574.75" y="1475.0" type="line"/>
      <point x="588.75" y="1570.0" type="line"/>
    </contour>
    <contour>
      <point x="86.5" y="689.0" type="qcurve" smooth="yes"/>
      <point x="86.5" y="767.0" type="line" smooth="yes"/>
      <point x="86.5" y="1141.0"/>
      <point x="367.0" y="1476.0"/>
      <point x="587.0" y="1476.0" type="qcurve" smooth="yes"/>
      <point x="808.0" y="1476.0"/>
      <point x="1036.625" y="1234.0"/>
      <point x="1036.525" y="1014.0" type="qcurve" smooth="yes"/>
      <point x="1036.525" y="984.0" type="line"/>
      <point x="1028.0" y="984.0" type="line"/>
      <point x="1028.0" y="1014.0" type="line" smooth="yes"/>
      <point x="1028.0" y="1233.25"/>
      <point x="799.0" y="1467.25"/>
      <point x="587.0" y="1467.25" type="qcurve" smooth="yes"/>
      <point x="372.0" y="1467.25"/>
      <point x="95.0" y="1135.25"/>
      <point x="95.0" y="767.0" type="qcurve" smooth="yes"/>
      <point x="95.0" y="689.0" type="line" smooth="yes"/>
      <point x="95.0" y="328.25"/>
      <point x="350.0" y="-10.0"/>
      <point x="593.0" y="-10.0" type="qcurve" smooth="yes"/>
      <point x="805.0" y="-10.0"/>
      <point x="1028.0" y="226.25"/>
      <point x="1028.0" y="442.0" type="qcurve" smooth="yes"/>
      <point x="1028.0" y="472.0" type="line"/>
      <point x="1036.5" y="472.0" type="line"/>
      <point x="1036.5" y="432.0" type="line" smooth="yes"/>
      <point x="1036.5" y="224.0"/>
      <point x="811.0" y="-19.0"/>
      <point x="585.0" y="-19.0" type="qcurve" smooth="yes"/>
      <point x="344.0" y="-19.0"/>
      <point x="86.5" y="322.0"/>
    </contour>
  </outline>
</glyph>
<glyph name="lira" format="2">
  <advance width="891"/>
  <unicode hex="20A4"/>
  <outline>
    <contour>
      <point x="851.0" y="0.0" type="line"/>
      <point x="56.0" y="0.0" type="line"/>
      <point x="56.0" y="6.5" type="line"/>
      <point x="103.75" y="6.5" type="line" smooth="yes"/>
      <point x="196.75" y="6.5"/>
      <point x="275.75" y="246.0"/>
      <point x="256.75" y="467.0" type="qcurve" smooth="yes"/>
      <point x="210.75" y="1039.0" type="line" smooth="yes"/>
      <point x="193.75" y="1250.0"/>
      <point x="341.25" y="1476.0"/>
      <point x="495.25" y="1476.0" type="qcurve" smooth="yes"/>
      <point x="648.475" y="1476.0"/>
      <point x="812.475" y="1283.3"/>
      <point x="812.475" y="1103.05" type="qcurve" smooth="yes"/>
      <point x="812.475" y="1087.0" type="line"/>
      <point x="804.075" y="1087.0" type="line"/>
      <point x="804.075" y="1103.0" type="line" smooth="yes"/>
      <point x="804.25" y="1278.3"/>
      <point x="644.675" y="1467.0"/>
      <point x="497.0" y="1467.0" type="qcurve" smooth="yes"/>
      <point x="343.8" y="1467.0"/>
      <point x="200.125" y="1246.35"/>
      <point x="217.25" y="1039.0" type="qcurve" smooth="yes"/>
      <point x="265.25" y="472.0" type="line" smooth="yes"/>
      <point x="282.25" y="277.0"/>
      <point x="222.25" y="35.5"/>
      <point x="150.25" y="8.5" type="qcurve"/>
      <point x="851.0" y="8.5" type="line"/>
    </contour>
    <contour>
      <point x="680.0" y="519.5" type="line"/>
      <point x="69.0" y="519.5" type="line"/>
      <point x="69.0" y="528.25" type="line"/>
      <point x="680.0" y="528.25" type="line"/>
    </contour>
    <contour>
      <point x="680.0" y="819.5" type="line"/>
      <point x="69.0" y="819.5" type="line"/>
      <point x="69.0" y="828.25" type="line"/>
      <point x="680.0" y="828.25" type="line"/>
    </contour>
  </outline>
</glyph>
<glyph name="won" format="2">
  <advance width="1561"/>
  <unicode hex="20A9"/>
  <outline>
    <contour>
      <point x="48.0" y="940.725" type="line"/>
      <point x="48.0" y="949.75" type="line"/>
      <point x="211.0" y="949.75" type="line"/>
      <point x="211.0" y="950.0" type="line"/>
      <point x="1347.0" y="950.0" type="line"/>
      <point x="1347.0" y="949.75" type="line"/>
      <point x="1509.0" y="951.75" type="line"/>
      <point x="1509.0" y="942.725" type="line"/>
      <point x="1347.0" y="940.725" type="line"/>
      <point x="1347.0" y="940.6" type="line"/>
      <point x="211.0" y="940.6" type="line"/>
      <point x="211.0" y="940.725" type="line"/>
    </contour>
    <contour>
      <point x="79.0" y="585.725" type="line"/>
      <point x="79.0" y="594.75" type="line"/>
      <point x="292.0" y="594.75" type="line"/>
      <point x="292.0" y="595.0" type="line"/>
      <point x="1264.0" y="595.0" type="line"/>
      <point x="1264.0" y="594.75" type="line"/>
      <point x="1470.0" y="596.75" type="line"/>
      <point x="1470.0" y="587.725" type="line"/>
      <point x="1264.0" y="585.725" type="line"/>
      <point x="1264.0" y="585.5" type="line"/>
      <point x="292.0" y="585.5" type="line"/>
      <point x="292.0" y="585.725" type="line"/>
    </contour>
    <contour>
      <point x="420.5" y="-8.0" type="line"/>
      <point x="90.5" y="1456.0" type="line"/>
      <point x="100.30000000000001" y="1456.0" type="line"/>
      <point x="403.5" y="111.0" type="line"/>
      <point x="423.0" y="23.025" type="line"/>
      <point x="425.0" y="23.025" type="line"/>
      <point x="445.475" y="111.0" type="line" smooth="yes"/>
      <point x="771.575" y="1456.0" type="line"/>
      <point x="783.5" y="1456.0" type="line"/>
      <point x="1102.5" y="112.0" type="line"/>
      <point x="1122.9" y="23.15" type="line"/>
      <point x="1125.925" y="23.15" type="line"/>
      <point x="1146.375" y="114.0" type="line" smooth="yes"/>
      <point x="1460.625" y="1456.0" type="line"/>
      <point x="1470.5" y="1456.0" type="line"/>
      <point x="1127.5" y="-9.0" type="line"/>
      <point x="1121.5" y="-9.0" type="line"/>
      <point x="806.5" y="1322.0" type="line"/>
      <point x="777.875" y="1446.55" type="line"/>
      <point x="776.975" y="1446.575" type="line"/>
      <point x="749.475" y="1322.0" type="line" smooth="yes"/>
      <point x="426.475" y="-8.0" type="line"/>
    </contour>
  </outline>
</glyph>
<glyph name="Euro" format="2">
  <advance width="986"/>
  <unicode hex="20AC"/>
  <outline>
    <contour>
      <point x="705.0" y="904.25" type="line"/>
      <point x="708.0" y="894.75" type="line"/>
      <point x="22.0" y="894.75" type="line"/>
      <point x="22.0" y="904.25" type="line"/>
    </contour>
    <contour>
      <point x="708.0" y="598.25" type="line"/>
      <point x="708.0" y="589.75" type="line"/>
      <point x="22.0" y="589.75" type="line"/>
      <point x="22.0" y="598.25" type="line"/>
    </contour>
    <contour>
      <point x="173.5" y="544.0" type="qcurve" smooth="yes"/>
      <point x="173.5" y="903.0" type="line" smooth="yes"/>
      <point x="173.5" y="1208.5"/>
      <point x="364.525" y="1484.0"/>
      <point x="578.8" y="1484.0" type="qcurve" smooth="yes"/>
      <point x="675.0" y="1484.0"/>
      <point x="858.0" y="1408.0"/>
      <point x="919.0" y="1337.0" type="qcurve"/>
      <point x="912.825" y="1331.05" type="line"/>
      <point x="856.825" y="1398.05"/>
      <point x="673.0" y="1475.75"/>
      <point x="580.575" y="1475.75" type="qcurve" smooth="yes"/>
      <point x="368.75" y="1475.75"/>
      <point x="182.0" y="1201.575"/>
      <point x="182.0" y="906.0" type="qcurve" smooth="yes"/>
      <point x="182.0" y="541.0" type="line" smooth="yes"/>
      <point x="182.0" y="249.35000000000002"/>
      <point x="372.95" y="-22.0"/>
      <point x="584.65" y="-22.0" type="qcurve" smooth="yes"/>
      <point x="678.775" y="-22.0"/>
      <point x="867.7" y="64.9"/>
      <point x="926.575" y="131.225" type="qcurve"/>
      <point x="932.0" y="126.0" type="line"/>
      <point x="869.0" y="56.0"/>
      <point x="680.0" y="-30.0"/>
      <point x="582.0" y="-30.0" type="qcurve" smooth="yes"/>
      <point x="366.0" y="-30.0"/>
      <point x="173.5" y="241.0"/>
    </contour>
  </outline>
</glyph>
<glyph name="uni20AD" format="2">
  <advance width="910"/>
  <unicode hex="20AD"/>
  <outline>
    <contour>
      <point x="150.75" y="0.0" type="line"/>
      <point x="150.75" y="1456.0" type="line"/>
      <point x="159.25" y="1456.0" type="line"/>
      <point x="159.25" y="540.5" type="line"/>
      <point x="896.25" y="1456.0" type="line"/>
      <point x="907.5" y="1456.0" type="line"/>
      <point x="159.25" y="527.25" type="line"/>
      <point x="159.25" y="0.0" type="line"/>
    </contour>
    <contour>
      <point x="954.5" y="0.0" type="line"/>
      <point x="411.0" y="844.625" type="line"/>
      <point x="417.325" y="851.325" type="line"/>
      <point x="965.5" y="0.0" type="line"/>
    </contour>
    <contour>
      <point x="158.45" y="734.0" type="line"/>
      <point x="-8.5" y="734.0" type="line"/>
      <point x="-8.5" y="743.0" type="line"/>
      <point x="158.45" y="743.0" type="line"/>
    </contour>
    <contour>
      <point x="870.25" y="743.0" type="line"/>
      <point x="870.25" y="734.0" type="line"/>
      <point x="483.6" y="734.0" type="line"/>
      <point x="483.6" y="743.0" type="line"/>
    </contour>
  </outline>
</glyph>
<glyph name="uni20B1" format="2">
  <advance width="984"/>
  <unicode hex="20B1"/>
  <outline>
    <contour>
      <point x="454.0" y="422.5" type="qcurve" smooth="yes"/>
      <point x="135.0" y="422.5" type="line"/>
      <point x="135.0" y="431.25" type="line"/>
      <point x="454.0" y="431.25" type="line" smooth="yes"/>
      <point x="642.775" y="431.25"/>
      <point x="848.0" y="694.1"/>
      <point x="848.0" y="939.0" type="qcurve" smooth="yes"/>
      <point x="848.0" y="1183.9"/>
      <point x="643.0" y="1447.3"/>
      <point x="454.0" y="1447.275" type="qcurve" smooth="yes"/>
      <point x="139.0" y="1447.275" type="line"/>
      <point x="139.0" y="0.0" type="line"/>
      <point x="130.5" y="0.0" type="line"/>
      <point x="130.5" y="1456.0" type="line"/>
      <point x="454.0" y="1456.0" type="line" smooth="yes"/>
      <point x="647.5" y="1456.0"/>
      <point x="856.5" y="1189.0"/>
      <point x="856.5" y="940.0" type="qcurve" smooth="yes"/>
      <point x="856.5" y="696.0"/>
      <point x="647.5" y="422.5"/>
    </contour>
    <contour>
      <point x="-1.0" y="1040.75" type="line"/>
      <point x="-1.0" y="1048.5" type="line"/>
      <point x="135.0" y="1048.5" type="line"/>
      <point x="135.0" y="1049.125" type="line"/>
      <point x="847.0" y="1049.125" type="line"/>
      <point x="847.0" y="1048.5" type="line"/>
      <point x="969.0" y="1050.5" type="line"/>
      <point x="969.0" y="1042.75" type="line"/>
      <point x="847.0" y="1040.75" type="line"/>
      <point x="847.0" y="1040.4" type="line"/>
      <point x="135.0" y="1040.4" type="line"/>
      <point x="135.0" y="1040.75" type="line"/>
    </contour>
    <contour>
      <point x="-1.0" y="779.5" type="line"/>
      <point x="-1.0" y="788.25" type="line"/>
      <point x="135.0" y="788.25" type="line"/>
      <point x="135.0" y="788.625" type="line"/>
      <point x="840.0" y="788.625" type="line"/>
      <point x="840.0" y="788.25" type="line"/>
      <point x="969.0" y="790.25" type="line"/>
      <point x="969.0" y="781.5" type="line"/>
      <point x="840.0" y="779.5" type="line"/>
      <point x="840.0" y="778.9" type="line"/>
      <point x="135.0" y="778.9" type="line"/>
      <point x="135.0" y="779.5" type="line"/>
    </contour>
  </outline>
</glyph>
<glyph name="hryvnia" format="2">
  <advance width="1003"/>
  <unicode hex="20B4"/>
  <outline>
    <contour>
      <point x="968.0" y="601.425" type="line"/>
      <point x="35.0" y="601.425" type="line"/>
      <point x="35.0" y="592.65" type="line"/>
      <point x="968.0" y="592.65" type="line"/>
    </contour>
    <contour>
      <point x="968.0" y="901.075" type="line"/>
      <point x="35.0" y="901.075" type="line"/>
      <point x="35.0" y="892.3" type="line"/>
      <point x="968.0" y="892.3" type="line"/>
    </contour>
    <contour>
      <point x="911.425" y="426.625" type="line"/>
      <point x="911.425" y="358.575" type="line" smooth="yes"/>
      <point x="911.425" y="183.125"/>
      <point x="692.0560810811" y="-11.625"/>
      <point x="504.875" y="-11.625" type="qcurve" smooth="yes"/>
      <point x="319.85308564229996" y="-11.625"/>
      <point x="104.175" y="181.2"/>
      <point x="104.175" y="336.625" type="qcurve" smooth="yes"/>
      <point x="104.175" y="421.15"/>
      <point x="148.55" y="547.0"/>
      <point x="200.225" y="598.2" type="qcurve"/>
      <point x="188.425" y="598.2" type="line"/>
      <point x="139.1" y="547.9"/>
      <point x="95.675" y="421.1"/>
      <point x="95.675" y="337.625" type="qcurve" smooth="yes"/>
      <point x="95.675" y="176.9"/>
      <point x="316.2" y="-20.0"/>
      <point x="504.875" y="-20.0" type="qcurve" smooth="yes"/>
      <point x="694.225" y="-20.0"/>
      <point x="919.9" y="178.825"/>
      <point x="919.9" y="346.625" type="qcurve" smooth="yes"/>
      <point x="919.9" y="426.625" type="line"/>
    </contour>
    <contour>
      <point x="507.425" y="1467.625" type="qcurve" smooth="yes"/>
      <point x="702.2658136483" y="1467.625"/>
      <point x="889.4" y="1308.675"/>
      <point x="889.4" y="1159.125" type="qcurve" smooth="yes"/>
      <point x="889.4" y="1070.825"/>
      <point x="835.025" y="948.125"/>
      <point x="767.775" y="896.175" type="qcurve"/>
      <point x="780.85" y="896.175" type="line"/>
      <point x="844.125" y="946.325"/>
      <point x="898.625" y="1071.925"/>
      <point x="898.65" y="1159.15" type="qcurve" smooth="yes"/>
      <point x="898.775" y="1313.3"/>
      <point x="700.2576530612" y="1476.0"/>
      <point x="507.35" y="1476.0" type="qcurve" smooth="yes"/>
      <point x="299.7928663239" y="1476.0"/>
      <point x="118.05" y="1262.825"/>
      <point x="117.7" y="1135.125" type="qcurve" smooth="yes"/>
      <point x="117.7" y="1065.125" type="line"/>
      <point x="126.175" y="1065.125" type="line"/>
      <point x="126.175" y="1133.125" type="line" smooth="yes"/>
      <point x="126.175" y="1259.625"/>
      <point x="302.98937994719995" y="1467.625"/>
    </contour>
  </outline>
</glyph>
<glyph name="minus" format="2">
  <advance width="1024"/>
  <unicode hex="2212"/>
  <outline>
    <contour>
      <point x="80.0" y="671.125" type="line"/>
      <point x="80.0" y="677.4" type="line"/>
      <point x="944.0" y="677.4" type="line"/>
      <point x="944.0" y="671.125" type="line"/>
    </contour>
  </outline>
</glyph>
<glyph name="approxequal" format="2">
  <advance width="1024"/>
  <unicode hex="2248"/>
  <outline>
    <contour>
      <point x="46.0" y="704.75" type="qcurve"/>
      <point x="46.0" y="718.5" type="line"/>
      <point x="93.0" y="774.5"/>
      <point x="225.0" y="840.5"/>
      <point x="290.0" y="841.5" type="qcurve" smooth="yes"/>
      <point x="342.0" y="842.5"/>
      <point x="431.0" y="814.5"/>
      <point x="524.0" y="768.5" type="qcurve" smooth="yes"/>
      <point x="609.0" y="725.5"/>
      <point x="692.0" y="698.5"/>
      <point x="742.0" y="698.5" type="qcurve" smooth="yes"/>
      <point x="807.0" y="698.5"/>
      <point x="932.0" y="766.5"/>
      <point x="979.0" y="826.5" type="qcurve"/>
      <point x="979.0" y="813.75" type="line"/>
      <point x="932.0" y="758.75"/>
      <point x="808.0" y="690.75"/>
      <point x="743.0" y="690.75" type="qcurve" smooth="yes"/>
      <point x="692.0" y="690.75"/>
      <point x="609.0" y="716.75"/>
      <point x="525.0" y="759.75" type="qcurve" smooth="yes"/>
      <point x="433.0" y="804.75"/>
      <point x="344.0" y="832.75"/>
      <point x="290.0" y="832.75" type="qcurve" smooth="yes"/>
      <point x="225.0" y="832.75"/>
      <point x="93.0" y="764.75"/>
    </contour>
    <contour>
      <point x="45.0" y="287.75" type="qcurve"/>
      <point x="45.0" y="301.5" type="line"/>
      <point x="92.0" y="357.5"/>
      <point x="224.0" y="422.5"/>
      <point x="289.0" y="423.5" type="qcurve" smooth="yes"/>
      <point x="341.0" y="424.5"/>
      <point x="430.0" y="396.5"/>
      <point x="523.0" y="350.5" type="qcurve" smooth="yes"/>
      <point x="607.0" y="307.5"/>
      <point x="690.0" y="281.5"/>
      <point x="741.0" y="281.5" type="qcurve" smooth="yes"/>
      <point x="806.0" y="281.5"/>
      <point x="931.0" y="349.5"/>
      <point x="978.0" y="409.5" type="qcurve"/>
      <point x="978.0" y="395.75" type="line"/>
      <point x="931.0" y="340.75"/>
      <point x="807.0" y="272.75"/>
      <point x="742.0" y="272.75" type="qcurve" smooth="yes"/>
      <point x="691.0" y="272.75"/>
      <point x="608.0" y="298.75"/>
      <point x="524.0" y="341.75" type="qcurve" smooth="yes"/>
      <point x="432.0" y="386.75"/>
      <point x="343.0" y="414.75"/>
      <point x="289.0" y="414.75" type="qcurve" smooth="yes"/>
      <point x="224.0" y="414.75"/>
      <point x="92.0" y="347.75"/>
    </contour>
  </outline>
</glyph>
<glyph name="notequal" format="2">
  <advance width="942"/>
  <unicode hex="2260"/>
  <outline>
    <contour>
      <point x="717.25" y="1174.175" type="line"/>
      <point x="543.25" y="871.175" type="line"/>
      <point x="540.5" y="866.175" type="line"/>
      <point x="316.5" y="476.175" type="line"/>
      <point x="314.25" y="472.175" type="line"/>
      <point x="148.39999999999998" y="182.475" type="line"/>
      <point x="143.825" y="186.75" type="line"/>
      <point x="307.825" y="472.75" type="line"/>
      <point x="309.575" y="476.75" type="line"/>
      <point x="533.575" y="867.75" type="line"/>
      <point x="535.825" y="870.75" type="line"/>
      <point x="711.55" y="1177.475" type="line"/>
    </contour>
    <contour>
      <point x="100.0" y="470.75" type="line"/>
      <point x="100.0" y="477.325" type="line"/>
      <point x="842.0" y="477.325" type="line"/>
      <point x="842.0" y="470.75" type="line"/>
    </contour>
    <contour>
      <point x="100.0" y="865.75" type="line"/>
      <point x="100.0" y="872.325" type="line"/>
      <point x="842.0" y="872.325" type="line"/>
      <point x="842.0" y="865.75" type="line"/>
    </contour>
  </outline>
</glyph>
<glyph name="lessequal" format="2">
  <advance width="941"/>
  <unicode hex="2264"/>
  <outline>
    <contour>
      <point x="841.0" y="317.0" type="line"/>
      <point x="100.0" y="667.5" type="line"/>
      <point x="100.0" y="679.5" type="line"/>
      <point x="841.0" y="1032.25" type="line"/>
      <point x="841.0" y="1023.0" type="line"/>
      <point x="106.25" y="674.0" type="line"/>
      <point x="841.0" y="326.0" type="line"/>
    </contour>
    <contour>
      <point x="72.0" y="1.0" type="line"/>
      <point x="72.0" y="7.5" type="line"/>
      <point x="852.0" y="7.5" type="line"/>
      <point x="852.0" y="1.0" type="line"/>
    </contour>
  </outline>
</glyph>
<glyph name="rightanglebracket" format="2">
  <advance width="593"/>
  <unicode hex="27E9"/>
  <outline>
    <contour>
      <point x="0.5" y="-298.45" type="line"/>
      <point x="602.5" y="588.8" type="line"/>
      <point x="0.5" y="1493.3" type="line"/>
      <point x="6.5" y="1498.55" type="line"/>
      <point x="608.5" y="595.8" type="line"/>
      <point x="608.5" y="582.8" type="line"/>
      <point x="6.5" y="-303.7" type="line"/>
    </contour>
  </outline>
</glyph>
<glyph name="dieresiscomb.case" format="2">
  <advance width="1024"/>
  <outline>
    <contour>
      <point x="308.825" y="1697.0" type="qcurve" smooth="yes"/>
      <point x="308.825" y="1704.625"/>
      <point x="319.4" y="1715.225"/>
      <point x="329.0" y="1715.225" type="qcurve" smooth="yes"/>
      <point x="338.625" y="1715.225"/>
      <point x="348.175" y="1704.65"/>
      <point x="348.175" y="1697.0" type="qcurve" smooth="yes"/>
      <point x="348.175" y="1688.375"/>
      <point x="337.6" y="1677.8"/>
      <point x="328.0" y="1677.8" type="qcurve" smooth="yes"/>
      <point x="318.375" y="1677.8"/>
      <point x="308.825" y="1688.35"/>
    </contour>
    <contour>
      <point x="674.825" y="1697.0" type="qcurve" smooth="yes"/>
      <point x="674.825" y="1704.625"/>
      <point x="685.4" y="1715.225"/>
      <point x="695.0" y="1715.225" type="qcurve" smooth="yes"/>
      <point x="704.625" y="1715.225"/>
      <point x="714.175" y="1704.65"/>
      <point x="714.175" y="1697.0" type="qcurve" smooth="yes"/>
      <point x="714.175" y="1688.375"/>
      <point x="703.6" y="1677.8"/>
      <point x="694.0" y="1677.8" type="qcurve" smooth="yes"/>
      <point x="684.375" y="1677.8"/>
      <point x="674.825" y="1688.35"/>
    </contour>
  </outline>
</glyph>
<glyph name="dollar.rvrn" format="2">
	<advance width="927"/>
	<outline>
		<contour>
			<point x="67" y="417" type="qcurve" smooth="yes"/>
			<point x="67" y="429" type="line"/>
			<point x="74.68" y="429" type="line"/>
			<point x="74.68" y="417" type="line" smooth="yes"/>
			<point x="74.68" y="225.16"/>
			<point x="304.4" y="5.56"/>
			<point x="474.84" y="5.56" type="qcurve" smooth="yes"/>
			<point x="649.04" y="5.56"/>
			<point x="867.8" y="203.88"/>
			<point x="867.8" y="360.32" type="qcurve" smooth="yes"/>
			<point x="867.8" y="500.96"/>
			<point x="694.96" y="675.88"/>
			<point x="496.52" y="738.16" type="qcurve" smooth="yes"/>
			<point x="308.24" y="797.36"/>
			<point x="101.28" y="973.08"/>
			<point x="101.28" y="1116.68" type="qcurve" smooth="yes"/>
			<point x="101.28" y="1271.88"/>
			<point x="307" y="1456"/>
			<point x="464.72" y="1456" type="qcurve" smooth="yes"/>
			<point x="638.84" y="1456"/>
			<point x="852.24" y="1222.56"/>
			<point x="852.24" y="1045" type="qcurve" smooth="yes"/>
			<point x="852.24" y="1033" type="line"/>
			<point x="844.56" y="1033" type="line"/>
			<point x="844.56" y="1045" type="line" smooth="yes"/>
			<point x="844.56" y="1218.76"/>
			<point x="636.12" y="1450.44"/>
			<point x="464.72" y="1450.44" type="qcurve" smooth="yes"/>
			<point x="310.28" y="1450.44"/>
			<point x="109" y="1270.16"/>
			<point x="109" y="1119.68" type="qcurve" smooth="yes"/>
			<point x="109" y="976"/>
			<point x="312.12" y="804.04"/>
			<point x="500.8" y="744.64" type="qcurve" smooth="yes"/>
			<point x="701.76" y="681.52"/>
			<point x="875.52" y="503.84"/>
			<point x="875.52" y="363.32" type="qcurve" smooth="yes"/>
			<point x="875.52" y="201.12"/>
			<point x="652.28" y="0"/>
			<point x="474.84" y="0" type="qcurve" smooth="yes"/>
			<point x="301.56" y="0"/>
			<point x="67" y="223.52"/>
		</contour>
		<contour>
			<point x="465.56" y="-150" type="line"/>
			<point x="465.56" y="4" type="line"/>
			<point x="473.96" y="4" type="line"/>
			<point x="473.96" y="2" type="line"/>
			<point x="473.76" y="0" type="line"/>
			<point x="473.76" y="-150" type="line"/>
		</contour>
		<contour>
			<point x="465.36" y="1452" type="line"/>
			<point x="465.36" y="1454" type="line"/>
			<point x="465.56" y="1456" type="line"/>
			<point x="465.56" y="1606" type="line"/>
			<point x="473.76" y="1606" type="line"/>
			<point x="473.76" y="1452" type="line"/>
		</contour>
	</outline>
</glyph>
<glyph name="dotaccentcomb.case" format="2">
  <advance width="1024"/>
  <outline>
    <contour>
      <point x="492.85" y="1634.0" type="qcurve" smooth="yes"/>
      <point x="492.85" y="1641.6"/>
      <point x="503.425" y="1652.175"/>
      <point x="513.0" y="1652.175" type="qcurve" smooth="yes"/>
      <point x="522.6" y="1652.175"/>
      <point x="532.15" y="1641.625"/>
      <point x="532.15" y="1634.0" type="qcurve" smooth="yes"/>
      <point x="532.15" y="1625.4"/>
      <point x="521.575" y="1614.825"/>
      <point x="512.0" y="1614.825" type="qcurve" smooth="yes"/>
      <point x="502.4" y="1614.825"/>
      <point x="492.85" y="1625.375"/>
    </contour>
  </outline>
</glyph>
<glyph name="el.bgr" format="2">
  <advance width="770"/>
  <outline>
    <contour>
      <point x="752" y="0" type="line"/>
      <point x="740" y="0.0" type="line"/>
      <point x="396" y="879.0" type="line" smooth="yes"/>
      <point x="394.0" y="885.0"/>
      <point x="389" y="898.0"/>
      <point x="386" y="907.0" type="qcurve"/>
      <point x="384" y="907" type="line"/>
      <point x="381" y="898.0"/>
      <point x="376.0" y="884"/>
      <point x="374.0" y="879.0" type="qcurve" smooth="yes"/>
      <point x="28" y="0" type="line"/>
      <point x="18" y="0.0" type="line"/>
      <point x="377.0" y="914.0" type="line"/>
      <point x="393" y="914" type="line"/>
    </contour>
  </outline>
</glyph>
<glyph name="gravecomb.case" format="2">
  <advance width="1024"/>
  <outline>
    <contour>
      <point x="595.425" y="1569.3" type="line"/>
      <point x="310.5" y="1880.325" type="line"/>
      <point x="316.25" y="1884.575" type="line"/>
      <point x="599.625" y="1572.825" type="line"/>
    </contour>
  </outline>
</glyph>
<glyph name="hookabovecomb.case" format="2">
  <advance width="1024"/>
  <outline>
    <contour>
      <point x="439.5" y="1536.975" type="line"/>
      <point x="439.5" y="1606.125" type="line" smooth="yes"/>
      <point x="439.5" y="1615.75"/>
      <point x="447.6" y="1624.25"/>
      <point x="459.54999999999995" y="1625.3" type="qcurve" smooth="yes"/>
      <point x="585.225" y="1631.475"/>
      <point x="684.525" y="1707.15"/>
      <point x="684.525" y="1767.3" type="qcurve" smooth="yes"/>
      <point x="684.525" y="1833.65"/>
      <point x="600.125" y="1906.225"/>
      <point x="521.725" y="1906.225" type="qcurve" smooth="yes"/>
      <point x="457.3" y="1906.225"/>
      <point x="343.35" y="1876.875"/>
      <point x="315.05" y="1860.675" type="qcurve"/>
      <point x="310.425" y="1868.7" type="line"/>
      <point x="341.325" y="1884.775"/>
      <point x="458.0" y="1914.975"/>
      <point x="522.0" y="1914.975" type="qcurve" smooth="yes"/>
      <point x="604.0" y="1914.975"/>
      <point x="693.0" y="1837.975"/>
      <point x="693.0" y="1765.975" type="qcurve" smooth="yes"/>
      <point x="693.0" y="1701.975"/>
      <point x="586.075" y="1621.4"/>
      <point x="449.0" y="1615.475" type="qcurve"/>
      <point x="449.0" y="1536.975" type="line"/>
    </contour>
  </outline>
</glyph>
<glyph name="horncomb.case" format="2">
	<advance width="1024"/>
	<outline>
		<contour>
			<point x="382" y="1525.6" type="line"/>
			<point x="455" y="1525.6" type="line" smooth="yes"/>
			<point x="518" y="1525.6"/>
			<point x="593" y="1556.6"/>
			<point x="593" y="1613.6" type="qcurve" smooth="yes"/>
			<point x="593" y="1654.6"/>
			<point x="582" y="1727.6"/>
			<point x="573" y="1763.6" type="qcurve"/>
			<point x="713.8" y="1763.6" type="line"/>
			<point x="730.8" y="1732.6"/>
			<point x="764.8" y="1622.6"/>
			<point x="764.8" y="1563.6" type="qcurve" smooth="yes"/>
			<point x="764.8" y="1475.6"/>
			<point x="626" y="1390.04"/>
			<point x="530" y="1390.04" type="qcurve" smooth="yes"/>
			<point x="484" y="1390.04"/>
			<point x="408" y="1402.12"/>
			<point x="382" y="1411.2" type="qcurve"/>
		</contour>
	</outline>
</glyph>
<glyph name="tildecomb.case" format="2">
  <advance width="1024"/>
  <outline>
    <contour>
      <point x="227.72500000000002" y="1640.475" type="line"/>
      <point x="262.625" y="1686.175"/>
      <point x="348.0" y="1736.45"/>
      <point x="401.0" y="1736.45" type="qcurve" smooth="yes"/>
      <point x="437.0" y="1736.45"/>
      <point x="507.975" y="1704.425"/>
      <point x="540.0" y="1686.45" type="qcurve" smooth="yes"/>
      <point x="573.125" y="1668.35"/>
      <point x="634.0" y="1642.45"/>
      <point x="667.0" y="1642.45" type="qcurve" smooth="yes"/>
      <point x="716.325" y="1642.45"/>
      <point x="789.25" y="1679.75"/>
      <point x="821.45" y="1727.075" type="qcurve"/>
      <point x="825.925" y="1722.875" type="line"/>
      <point x="792.95" y="1675.025"/>
      <point x="717.275" y="1636.075"/>
      <point x="666.15" y="1636.075" type="qcurve" smooth="yes"/>
      <point x="631.0" y="1636.075"/>
      <point x="563.0" y="1666.0"/>
      <point x="536.0" y="1681.0" type="qcurve" smooth="yes"/>
      <point x="506.0" y="1698.0"/>
      <point x="434.0" y="1730.0"/>
      <point x="399.725" y="1730.0" type="qcurve" smooth="yes"/>
      <point x="346.0" y="1730.0"/>
      <point x="264.025" y="1679.35"/>
      <point x="231.97500000000002" y="1636.3" type="qcurve"/>
    </contour>
  </outline>
</glyph>
<glyph name="zerosuperior" format="2">
  <advance width="495"/>
  <outline>
    <contour>
      <point x="90.0" y="878.0" type="qcurve" smooth="yes"/>
      <point x="90.0" y="1278.0" type="line" smooth="yes"/>
      <point x="90" y="1376"/>
      <point x="168.0" y="1476.0"/>
      <point x="247.0" y="1476.0" type="qcurve" smooth="yes"/>
      <point x="324.0" y="1476.0"/>
      <point x="405" y="1387"/>
      <point x="405.0" y="1278.0" type="qcurve" smooth="yes"/>
      <point x="405.0" y="878.0" type="line" smooth="yes"/>
      <point x="405.0" y="779.0"/>
      <point x="326.0" y="680.0"/>
      <point x="248.0" y="680.0" type="qcurve" smooth="yes"/>
      <point x="170" y="680"/>
      <point x="90.0" y="769.0"/>
    </contour>
    <contour>
      <point x="99.0" y="881.0" type="line" smooth="yes"/>
      <point x="99.0" y="769.0"/>
      <point x="177" y="689"/>
      <point x="248.0" y="689.0" type="qcurve" smooth="yes"/>
      <point x="319.0" y="689.0"/>
      <point x="396.0" y="780.0"/>
      <point x="396.0" y="881.0" type="qcurve" smooth="yes"/>
      <point x="396.0" y="1275.0" type="line" smooth="yes"/>
      <point x="396" y="1386"/>
      <point x="316.0" y="1466.0"/>
      <point x="247.0" y="1466.0" type="qcurve" smooth="yes"/>
      <point x="176.0" y="1466.0"/>
      <point x="99" y="1376"/>
      <point x="99.0" y="1275.0" type="qcurve" smooth="yes"/>
    </contour>
  </outline>
</glyph>
